<?xml version="1.0" standalone="no"?>
<!DOCTYPE svg PUBLIC "-//W3C//DTD SVG 1.1//EN" "http://www.w3.org/Graphics/SVG/1.1/DTD/svg11.dtd" >
<!--
2013-9-30: Created.
-->
<svg>
<metadata>
Created by iconfont
</metadata>
<defs>

<font id="iconfont" horiz-adv-x="1024" >
  <font-face
    font-family="iconfont"
    font-weight="500"
    font-stretch="normal"
    units-per-em="1024"
    ascent="896"
    descent="-128"
  />
    <missing-glyph />
    
    <glyph glyph-name="chaxun" unicode="&#58886;" d="M397.312 151.086545c-181.775515 0-329.69697 147.921455-329.69697 329.69697S215.536485 810.480485 397.312 810.480485 727.04 662.55903 727.04 480.783515c0-84.340364-31.837091-164.615758-89.615515-225.993697a326.749091 326.749091 0 0 0-240.081455-103.703273z m588.8-215.226181l-0.620606 0.682666-1.148121 1.210182-282.59297 296.89794a389.864727 389.864727 0 0 1 87.319273 246.132363c0 215.970909-175.755636 391.757576-391.757576 391.757576C181.341091 872.541091 5.585455 696.785455 5.585455 480.783515s175.755636-391.757576 391.757575-391.757576c96.566303 0 190.091636 36.460606 261.616485 100.600243l282.189576-296.525576 0.093091 0.062061c5.988848-6.299152 14.273939-10.302061 23.61406-9.929697 17.252848 0.682667 30.657939 15.204848 29.975273 32.457697a30.968242 30.968242 0 0 1-8.781576 20.107636l0.093091 0.062061z"  horiz-adv-x="1024" />

    
    <glyph glyph-name="bofang" unicode="&#58887;" d="M500.864-56.64c-239.648 0-434.656 194.976-434.656 434.624 0 239.68 195.008 434.624 434.656 434.624 239.68 0 434.656-194.944 434.656-434.624 0-239.68-195.008-434.624-434.656-434.624m0 933.28C225.92 876.64 2.24 652.896 2.24 377.984 2.24 103.04 225.92-120.64 500.864-120.64s498.656 223.68 498.656 498.624c0 274.912-223.68 498.624-498.656 498.624M404.864 569.984a32 32 0 0 1-32-32v-320a32 32 0 0 1 64 0v320a32 32 0 0 1-32 32M596.864 569.984a32 32 0 0 1-32-32v-320a32 32 0 0 1 64 0v320a32 32 0 0 1-32 32"  horiz-adv-x="1024" />

    
    <glyph glyph-name="danquxunhuan" unicode="&#58888;" d="M773.597867 692.224l-0.273067-0.443733a33.621333 33.621333 0 0 1-20.343467 6.485333c-18.978133-0.785067-33.723733-16.725333-32.9728-35.771733a33.826133 33.826133 0 0 1 15.633067-26.794667l-0.1024-0.170667a375.227733 375.227733 0 0 0 166.2976-311.876266c0-207.018667-168.448-375.466667-375.466667-375.466667-27.818667 0-27.818667 0-54.340266 2.901333-90.453333 9.898667-152.610133 58.9824-155.5456 61.201067a375.330133 375.330133 0 0 0-165.5808 311.364267c0 201.4208 159.5392 365.841067 358.843733 374.647466l-41.984-40.823466 0.8192-0.853334a33.860267 33.860267 0 0 1-15.2576-29.218133c0.750933-18.978133 16.725333-33.757867 35.669333-33.041067a33.792 33.792 0 0 1 26.0096 14.472534l0.3072-0.341334 128.648534 124.996267L515.6864 861.9008l-0.4096-0.4096a33.6896 33.6896 0 0 1-26.3168 11.400533c-18.944-0.750933-33.6896-16.725333-32.9728-35.703466a33.8944 33.8944 0 0 1 13.038933-25.156267l45.226667-45.2608C275.182933 760.285867 82.602667 564.258133 82.602667 323.652267c0-147.626667 73.1136-285.149867 193.194666-366.114134 3.072-2.56 77.550933-62.190933 188.757334-74.308266 29.422933-3.208533 31.1296-3.310933 61.781333-3.310934 244.667733 0 443.733333 199.0656 443.733333 443.733334A443.392 443.392 0 0 1 773.597867 692.224M542.071467 495.172267a33.28 33.28 0 0 1-17.134934-6.075734l-0.170666 0.3072-106.8032-69.700266 0.170666-0.273067a33.9968 33.9968 0 0 1-15.837866-29.696c0.750933-18.944 16.725333-33.723733 35.669333-32.9728a33.109333 33.109333 0 0 1 17.1008 6.0416l0.2048-0.273067 53.998933 35.259734v-249.856h0.034134c0-0.477867-0.238933-0.887467-0.2048-1.365334a34.2016 34.2016 0 1 1 68.4032 1.365334h0.034133v0.170666c0 0.4096 0.2048 0.750933 0.2048 1.160534 0 0.273067-0.170667 0.477867-0.2048 0.785066V460.8c0 0.477867 0.2048 0.887467 0.2048 1.3312a34.4064 34.4064 0 0 1-35.669333 33.041067"  horiz-adv-x="1024" />

    
    <glyph glyph-name="changpian" unicode="&#58889;" d="M459.838061 393.681455c0 30.657939 24.948364 55.606303 55.606303 55.606303s55.544242-24.948364 55.544242-55.606303-24.886303-55.606303-55.544242-55.606303a55.668364 55.668364 0 0 0-55.606303 55.606303m173.242181 0c0 64.884364-52.751515 117.666909-117.635878 117.666909a117.79103 117.79103 0 0 1-117.666909-117.666909 117.79103 117.79103 0 0 1 117.666909-117.66691 117.76 117.76 0 0 1 117.604848 117.66691M515.413333-39.439515c-238.809212 0-433.089939 194.311758-433.089939 433.089939 0 238.840242 194.249697 433.18303 433.12097 433.183031 238.809212 0 433.12097-194.342788 433.120969-433.183031 0-238.778182-194.311758-433.089939-433.120969-433.089939m0 928.302545C242.346667 888.86303 20.262788 666.748121 20.262788 393.650424c0-273.035636 222.145939-495.181576 495.181576-495.181576s495.181576 222.17697 495.181575 495.181576c0 273.066667-222.17697 495.243636-495.181575 495.243637M806.353455 424.711758a31.030303 31.030303 0 0 1-31.030303-31.030303v-0.031031c0-143.297939-116.580848-259.847758-259.878788-259.847757a31.030303 31.030303 0 0 1 0-62.060606c177.493333 0 321.939394 144.41503 321.939394 321.939394a31.030303 31.030303 0 0 1-31.030303 31.030303M515.413333 653.560242a31.030303 31.030303 0 0 1 0 62.060606c-177.493333 0-321.877333-144.41503-321.908363-321.908363v-0.03103a31.030303 31.030303 0 0 1 62.060606 0c0 143.297939 116.580848 259.878788 259.878788 259.878787z"  horiz-adv-x="1024" />

    
    <glyph glyph-name="erji" unicode="&#58890;" d="M65.056 159.808c0 85.696 56.96 119.68 100.096 133.28-8.32-41.664-11.904-88.864-11.904-133.28 0-45.984 3.936-94.88 12.896-137.632-28.16 5.696-51.072 16.896-67.456 34.464-37.472 40.16-33.76 100.16-33.632 103.168m859.904-103.168c-16.384-17.6-39.296-28.8-67.456-34.464 8.96 42.752 12.896 91.648 12.896 137.6 0 44.352-3.616 91.392-11.872 132.992 42.88-13.92 100.096-48.672 100.16-135.36 0-0.576 3.712-60.608-33.728-100.8m-152.576-85.536c-13.792 19.84-33.984 85.12-33.984 188.736 0 103.616 20.16 168.896 33.984 188.768 13.76-19.872 34.016-85.152 34.016-188.8 0-103.552-20.224-168.832-34.016-188.704M251.264 348.576c13.76-19.872 33.984-85.152 33.984-188.8 0-103.552-20.192-168.832-33.984-188.704-13.792 19.84-34.016 85.12-34.016 188.736 0 103.616 20.224 168.896 34.016 188.768M187.776-45.536c15.168-31.456 35.936-51.648 63.488-51.648 72.32 0 97.984 138.432 97.984 256.96 0 118.624-25.664 257.056-97.984 257.056-27.968 0-48.896-20.864-64.128-53.12a261.408 261.408 0 0 1-55.104-14.56v197.824c8.544 32.832 82.24 277.888 377.216 277.888 295.36 0 366.08-247.68 374.016-279.712v-193.024a259.136 259.136 0 0 1-46.752 11.584c-15.232 32.256-36.16 53.12-64.128 53.12-72.32 0-97.984-138.432-97.984-257.024 0-118.56 25.664-256.992 97.984-256.992 27.52 0 48.32 20.16 63.488 51.648 57.824 3.904 103.68 23.68 136.448 59.104 56.416 61.056 50.464 145.216 50.24 146.24 0 76.576-33.152 126.88-75.296 158.656v230.4l-0.704 6.688C945.824 558.88 870.944 888.864 509.248 888.864 147.84 888.864 69.568 561.184 68.8 557.92l-0.736-245.888c-38.08-31.68-66.976-79.456-66.944-149.696-0.32-3.552-6.24-87.712 50.176-148.8 32.736-35.392 78.624-55.168 136.448-59.072"  horiz-adv-x="1024" />

    
    <glyph glyph-name="huatong" unicode="&#58891;" d="M175.228121 197.290667a468.557576 468.557576 0 0 1 299.380364-138.115879v-118.784H394.457212c-0.465455 0-0.837818 0.217212-1.303273 0.217212a31.247515 31.247515 0 0 1 2.544485-62.49503c0.310303 0 0.558545 0.186182 0.868849 0.217212h215.04c0.434424 0 0.837818-0.248242 1.303272-0.217212a31.278545 31.278545 0 1 1-2.544484 62.49503c-0.310303-0.03103-0.558545-0.217212-0.868849-0.217212h-72.828121v118.287515c118.721939 6.361212 229.034667 55.637333 312.785454 141.436121a31.030303 31.030303 0 0 1-23.117575 53.279031 30.968242 30.968242 0 0 1-22.000485-10.581334 407.924364 407.924364 0 0 0-293.546667-123.345454A407.769212 407.769212 0 0 0 215.660606 244.363636l-0.310303-0.341333a30.72 30.72 0 0 1-23.241697 9.309091 31.216485 31.216485 0 0 1-29.913212-32.488727 30.72 30.72 0 0 1 13.063758-23.583031M330.379636 645.647515a172.838788 172.838788 0 0 0 172.652606 172.652606 172.838788 172.838788 0 0 0 172.683637-172.652606v-230.741333a172.838788 172.838788 0 0 0-172.683637-172.652606 172.838788 172.838788 0 0 0-172.652606 172.652606V645.647515z m172.652606-465.454545c129.427394 0 234.744242 105.316848 234.744243 234.713212V645.647515c0 129.396364-105.285818 234.713212-234.744243 234.713212-129.396364 0-234.713212-105.285818-234.713212-234.713212v-230.741333c0-129.396364 105.285818-234.713212 234.713212-234.713212z"  horiz-adv-x="1024" />

    
    <glyph glyph-name="jingyin" unicode="&#58892;" d="M672.8 165.504V551.808c92.864-15.36 164-96 164-193.152 0-97.152-71.136-177.792-164-193.152zM300.8 148.672c0-17.664-14.4-32-32-32H124.8c-17.632 0-32 14.336-32 32v400c0 17.6 14.368 32 32 32h144c17.6 0 32-14.4 32-32v-400z m58.432 430.944l249.568 173.76V-13.44l-248.32 135.136c2.528 8.64 4.32 17.568 4.32 27.008v400c0 10.88-2.24 21.184-5.568 30.944z m313.568 36.864V814.656h-0.448a31.552 31.552 0 0 1-31.552 31.552c-6.72 0-12.576-2.56-17.696-6.112l-0.576 0.832L319.36 629.888A95.008 95.008 0 0 1 268.8 644.672H124.8c-52.928 0-96-43.072-96-96v-400c0-52.96 43.072-96 96-96h144c20 0 38.56 6.176 53.952 16.64l302.72-164.8 0.448 0.832a30.784 30.784 0 0 1 14.88-4.224 31.584 31.584 0 0 1 31.552 31.552h0.448V100.8c128.288 15.872 228 125.344 228 257.824 0 132.48-99.712 241.984-228 257.824zM1022.08 863.616a31.552 31.552 0 0 1-44.608 0l-0.32 0.32-58.688-58.688-58.688 58.688-0.32-0.32a31.584 31.584 0 0 1-44.64-44.608h0.032l-0.32-0.32 58.688-58.688-58.688-58.688 0.32-0.32a31.584 31.584 0 0 1 0-44.64 31.648 31.648 0 0 1 44.608 0l0.32-0.288 58.688 58.688 58.688-58.688 0.32 0.32a31.552 31.552 0 1 1 44.608 44.608l0.32 0.32-58.688 58.688 58.688 58.688-0.32 0.32a31.552 31.552 0 0 1 0 44.608"  horiz-adv-x="1056" />

    
    <glyph glyph-name="liebiaoxunhuan" unicode="&#58893;" d="M905.615621 371.034468c0 132.931319-65.364876 256.560237-174.885151 331.940698v0.031008c-1.24032 0.868224-2.356608 1.922496-3.627936 2.790721l-0.248064-0.403105a30.573893 30.573893 0 0 1-18.480771 5.891522 31.256069 31.256069 0 0 1-29.953734-32.465382 30.635909 30.635909 0 0 1 14.232675-24.341284l-0.124032-0.186049a340.839996 340.839996 0 0 0 151.071002-283.289137c0-185.272833-148.559354-336.188795-332.777914-340.653948l39.194119 39.194119a30.759941 30.759941 0 0 1 11.752034 22.821892 31.225061 31.225061 0 0 1-29.953734 32.465381 30.728933 30.728933 0 0 1-23.876164-10.356673l-0.372096 0.372096-116.5901-116.652117 116.90018-113.582324 0.31008 0.31008a30.697925 30.697925 0 0 1 23.6281-13.147394 31.256069 31.256069 0 0 1 32.403366 30.015749 30.914981 30.914981 0 0 1-13.860578 26.542853l0.744192 0.7752-40.341415 39.225127c218.451398 4.434145 394.855941 183.164288 394.855941 402.669959M487.410652 711.347328l-38.139847-37.085575 0.744192-0.7752a30.759941 30.759941 0 0 1-13.860578-26.542853c0.682176-17.240451 15.162915-30.697925 32.403365-29.984741a30.697925 30.697925 0 0 1 23.628101 13.116386l0.279072-0.31008 116.869172 113.582324-116.528084 116.590101-0.372096-0.31008a30.697925 30.697925 0 0 1-23.907173 10.325665c-17.209443-0.651168-30.604901-15.193923-29.953733-32.434373a30.945989 30.945989 0 0 1 11.876066-22.883908l41.054599-41.085608C274.323638 767.626857 99.407479 589.57889 99.407479 371.00346c0-134.109624 66.450156-259.071886 177.675872-334.266299l34.728966 51.411273a340.964028 340.964028 0 0 0-150.388827 282.855026c0 182.947232 144.931417 332.343802 325.987162 340.343868"  horiz-adv-x="1024" />

    
    <glyph glyph-name="shanchu" unicode="&#58894;" d="M499.104 812.608c239.68 0 434.656-194.976 434.656-434.624 0-239.648-195.008-434.656-434.656-434.656S64.448 138.336 64.448 377.984 259.456 812.608 499.104 812.608m0-933.28c274.944 0 498.656 223.712 498.656 498.656S774.08 876.608 499.104 876.608C224.16 876.608 0.448 652.928 0.448 377.984s223.712-498.656 498.656-498.656M278.72 191.488h-0.032a31.968 31.968 0 1 1 45.248-45.28l186.496 186.56 186.528-186.56a31.968 31.968 0 1 1 45.248 45.248l-0.032 0.032-186.464 186.496 186.464 186.464 0.032 0.032a31.968 31.968 0 1 1-45.248 45.248l-186.528-186.496-186.496 186.496A31.968 31.968 0 1 1 278.72 564.48l186.464-186.464-186.464-186.496z"  horiz-adv-x="1024" />

    
    <glyph glyph-name="shengyin" unicode="&#58895;" d="M714.421677 174.971871V573.73729c95.859613-15.855484 169.290323-99.096774 169.290323-199.382709 0-100.285935-73.43071-183.527226-169.290323-199.38271z m-384-17.374968c0-18.233806-14.831484-33.032258-33.032258-33.032258h-148.645161c-18.167742 0-33.032258 14.798452-33.032258 33.032258v412.903226c0 18.167742 14.864516 33.032258 33.032258 33.032258h148.645161c18.200774 0 33.032258-14.864516 33.032258-33.032258v-412.903226zM390.771613 602.442323l257.651613 179.365161V-9.744516l-256.330323 139.495226c2.576516 8.91871 4.426323 18.13471 4.426323 27.879225v412.903226c0 11.230968-2.279226 21.867355-5.747613 31.942194z m323.716129 38.053161V845.064258h-0.495484a32.536774 32.536774 0 0 1-32.569806 32.569807c-6.936774 0-12.981677-2.642581-18.266839-6.309162l-0.594581 0.858839-312.91458-217.847742a98.072774 98.072774 0 0 1-52.190968 15.260903h-148.645161c-54.668387 0-99.096774-44.461419-99.096775-99.096774v-412.903226c0-54.668387 44.428387-99.096774 99.096775-99.096774h148.645161c20.612129 0 39.770839 6.375226 55.659355 17.176774l312.518193-170.116129 0.42942 0.858839a31.777032 31.777032 0 0 1 15.36-4.360258 32.569806 32.569806 0 0 1 32.569806 32.569806h0.462452V108.180645c132.459355 16.384 235.354839 129.387355 235.354838 266.140903 0 136.753548-102.928516 249.789935-235.354838 266.140904z"  horiz-adv-x="1024" />

    
    <glyph glyph-name="kuaitui" unicode="&#58896;" d="M509.696-48.832c-239.68 0-434.656 194.976-434.656 434.656 0 239.648 195.008 434.624 434.656 434.624S944.32 625.472 944.32 385.824c0-239.68-194.976-434.656-434.624-434.656m0 933.28C234.752 884.448 11.04 660.736 11.04 385.824c0-274.976 223.68-498.656 498.656-498.656 274.944 0 498.624 223.68 498.624 498.656 0 274.88-223.68 498.624-498.624 498.624M542.688 428.608l158.976 68.544v-222.72L542.72 343.04v85.6z m-64 62.688v-210.976l-189.024 105.504 189.024 105.472z m254.976 86.496a31.904 31.904 0 0 1-12.64-2.624l-178.336-76.864v47.52a32 32 0 0 1-32 31.968 30.72 30.72 0 0 1-15.36-4.48l-0.224 0.448-286.72-160 0.256-0.448a31.52 31.52 0 0 1-16.64-27.52c0-11.968 6.88-22.016 16.64-27.52l-0.224-0.384 286.688-160 0.224 0.384a31.04 31.04 0 0 1 15.36-4.48 32 32 0 0 1 32 32v47.52l178.336-76.896a32 32 0 0 1 44.64 29.344V545.856a32 32 0 0 1-32 31.968z"  horiz-adv-x="1024" />

    
    <glyph glyph-name="suiji" unicode="&#58897;" d="M911.478154 213.346462a38.990769 38.990769 0 0 1-30.326154 13.115076c-21.897846-0.827077-38.912-19.298462-38.084923-41.196307 0.472615-11.933538 6.380308-22.055385 14.966154-28.987077l47.182769-47.222154a289.201231 289.201231 0 0 0-139.264 61.794462L331.697231 638.936615A369.388308 369.388308 0 0 1 53.956923 764.849231a39.384615 39.384615 0 1 1 0-78.769231h0.039385c83.652923 0 163.249231-36.115692 219.214769-99.879385l433.624615-468.007384 8.27077-7.483077a369.664 369.664 0 0 1 194.048-81.762462l-52.539077-51.081846 0.984615-0.945231a39.069538 39.069538 0 0 1-17.604923-33.71323c0.866462-21.897846 19.298462-38.990769 41.156923-38.124308a38.912 38.912 0 0 1 29.971692 16.699077l0.393846-0.393846 148.48 144.226461-148.046769 148.204308-0.472615-0.472615zM911.163077 865.240615a38.990769 38.990769 0 0 1-30.011077 16.699077 39.660308 39.660308 0 0 1-41.117538-38.124307 38.990769 38.990769 0 0 1 17.604923-33.673847l-0.984616-1.024 48.600616-47.261538a366.08 366.08 0 0 1-217.481847-106.259692l-128.551384-139.34277 0.196923-0.196923a38.990769 38.990769 0 0 1-10.633846-26.505846 39.384615 39.384615 0 0 1 39.384615-39.384615 38.990769 38.990769 0 0 1 28.750769 12.878769l0.196923-0.196923 126.582154 137.294769a287.665231 287.665231 0 0 0 166.675693 82.944l-52.224-52.302769a39.108923 39.108923 0 0 1-15.044923-29.026462c-0.866462-21.897846 16.147692-40.329846 38.045538-41.196307a38.990769 38.990769 0 0 1 30.326154 13.115077l0.472615-0.433231 148.046769 148.164923-148.48 144.226462-0.393846-0.393847zM415.783385 341.110154a38.872615 38.872615 0 0 1-28.672-12.760616l-0.196923 0.157539-133.750154-144.265846A289.201231 289.201231 0 0 0 53.956923 105.156923v-0.472615c-0.866462 0.039385-1.575385 0.472615-2.441846 0.472615a39.384615 39.384615 0 1 1 0-78.769231c0.866462 0 1.575385 0.472615 2.441846 0.472616v-0.472616c94.562462 0 184.516923 35.721846 255.094154 102.4l135.601231 146.156308-0.196923 0.157538a38.872615 38.872615 0 0 1 10.712615 26.624 39.384615 39.384615 0 0 1-39.384615 39.384616"  horiz-adv-x="1063" />

    
    <glyph glyph-name="zanting" unicode="&#58898;" d="M500.864 812.608c239.68 0 434.656-194.976 434.656-434.624 0-239.648-195.008-434.656-434.656-434.656S66.24 138.336 66.24 377.984 261.216 812.608 500.864 812.608m0-933.28c274.944 0 498.656 223.712 498.656 498.656S775.84 876.608 500.864 876.608C225.92 876.608 2.24 652.928 2.24 377.984S225.92-120.672 500.864-120.672M436.864 483.488l189.024-105.504-189.024-105.504v211.008z m-32-297.504a31.04 31.04 0 0 1 15.36 4.48l0.224-0.416 286.72 160-0.256 0.416a31.584 31.584 0 0 1 16.64 27.52 31.552 31.552 0 0 1-16.64 27.52l0.224 0.416-286.688 160-0.224-0.416a30.72 30.72 0 0 1-15.36 4.48 32 32 0 0 1-32-32v-320a32 32 0 0 1 32-32z"  horiz-adv-x="1024" />

    
    <glyph glyph-name="shuaxin" unicode="&#58899;" d="M56.9344 317.3376c0-147.626667 73.147733-285.184 193.194667-366.148267 3.106133-2.525867 77.585067-62.1568 188.791466-74.274133 29.3888-3.208533 31.1296-3.310933 61.7472-3.310933 244.667733 0 443.733333 199.0656 443.733334 443.733333a443.392 443.392 0 0 1-196.5056 368.5376l-0.273067-0.4096a33.826133 33.826133 0 0 1-20.343467 6.4512 34.372267 34.372267 0 0 1-32.9728-35.703467 33.723733 33.723733 0 0 1 15.6672-26.8288l-0.136533-0.170666a375.261867 375.261867 0 0 0 166.2976-311.876267c0-207.018667-168.448-375.466667-375.466667-375.466667-27.784533 0-27.784533 0-54.340266 2.901334-90.453333 9.864533-152.610133 58.948267-155.5456 61.201066a375.330133 375.330133 0 0 0-165.5808 311.364267c0 201.386667 159.5392 365.841067 358.843733 374.647467l-41.984-40.823467 0.8192-0.853333a33.8944 33.8944 0 0 1-15.2576-29.218134c0.750933-18.978133 16.725333-33.792 35.669333-33.041066a33.792 33.792 0 0 1 26.0096 14.472533l0.3072-0.341333 128.648534 124.996266-128.273067 128.4096-0.4096-0.4096a33.621333 33.621333 0 0 1-26.3168 11.400534c-18.944-0.750933-33.6896-16.725333-32.9728-35.703467a33.8944 33.8944 0 0 1 13.038933-25.156267l45.226667-45.2608C249.480533 753.9712 56.9344 557.943467 56.9344 317.3376"  horiz-adv-x="1024" />

    
    <glyph glyph-name="zengjia" unicode="&#58900;" d="M765.248 409.312v0.672h-223.552V633.536h-0.64a31.36 31.36 0 0 1-62.72 0h-0.64v-223.552H277.248v-0.672a31.328 31.328 0 1 1 0-62.656v-0.672h200.448v-200.448h0.64a31.36 31.36 0 0 1 62.72 0h0.64v200.448h223.552v0.672a31.328 31.328 0 1 1 0 62.656M509.696-63.808c-243.584 0-441.792 198.176-441.792 441.792 0 243.584 198.208 441.76 441.792 441.76 243.584 0 441.76-198.176 441.76-441.76 0-243.616-198.176-441.792-441.76-441.792m0 947.552C230.816 883.744 3.904 656.864 3.904 377.984c0-278.912 226.88-505.792 505.792-505.792 278.88 0 505.76 226.88 505.76 505.792 0 278.88-226.88 505.76-505.76 505.76"  horiz-adv-x="1024" />

    
    <glyph glyph-name="kuaijin" unicode="&#58901;" d="M510.432-48.832c-239.648 0-434.624 194.976-434.624 434.656 0 239.648 194.976 434.624 434.624 434.624 239.68 0 434.656-194.976 434.656-434.624 0-239.68-195.008-434.656-434.656-434.656m0 933.28C235.52 884.448 11.84 660.736 11.84 385.824c0-274.976 223.68-498.656 498.624-498.656s498.656 223.68 498.656 498.656c0 274.88-223.68 498.624-498.656 498.624M318.432 274.464v222.688l159.04-68.544v-85.6l-159.04-68.544z m412.032 111.328L541.44 280.32v210.976l189.024-105.504z m81.28 27.968l-286.688 160-0.256-0.448a31.04 31.04 0 0 1-15.36 4.48 31.968 31.968 0 0 1-31.968-32v-47.488l-178.368 76.896v-0.064a32 32 0 0 1-44.64-29.344v-320a32 32 0 0 1 44.64-29.344v-0.032l178.336 76.896v-47.52h0.032a32 32 0 0 1 32-32 31.296 31.296 0 0 1 15.36 4.48l0.224-0.416 286.656 160-0.224 0.416a31.616 31.616 0 0 1 16.64 27.52 31.584 31.584 0 0 1-16.64 27.52l0.224 0.448z"  horiz-adv-x="1024" />

    
    <glyph glyph-name="yinle" unicode="&#58902;" d="M216.726588 124.747294c72.101647 0 133.029647-39.062588 133.029647-85.323294 0-46.260706-60.928-85.353412-133.029647-85.353412-72.101647 0-133.029647 39.092706-133.029647 85.353412s60.928 85.323294 133.029647 85.323294z m595.245177-88.064c-72.101647 0-133.029647 39.062588-133.029647 85.323294 0 46.260706 60.928 85.323294 133.029647 85.323294 72.101647 0 132.999529-39.062588 132.999529-85.323294 0-46.260706-60.897882-85.323294-132.999529-85.323294zM409.991529 589.191529V744.658824l534.979765 76.709647V665.901176l-534.979765-76.709647zM216.726588-106.164706c108.363294 0 193.264941 63.969882 193.264941 145.588706V528.353882L944.971294 605.063529v-376.771764c-34.424471 24.395294-80.926118 39.273412-132.999529 39.273411-108.363294 0-193.264941-63.939765-193.264941-145.558588s84.901647-145.558588 193.264941-145.558588 193.234824 63.939765 193.234823 145.558588V853.353412h-0.030117c0 0.421647 0.210824 0.783059 0.180705 1.204706A30.268235 30.268235 0 0 1 973.914353 883.651765c-0.963765-0.030118-1.746824-0.512-2.710588-0.632471l-0.39153 2.861177L378.88 801.069176h-0.240941c-0.240941 0-0.451765-0.120471-0.722824-0.150588l-2.409411-0.331294 0.090352-0.210823a29.906824 29.906824 0 0 1-25.840941-29.605647h-0.030117v-0.210824c0-0.331294-0.180706-0.632471-0.180706-0.963765 0-0.240941 0.150588-0.421647 0.180706-0.63247v-623.254589c-34.424471 24.395294-80.956235 39.273412-133.029647 39.273412-108.363294 0-193.264941-63.939765-193.264942-145.558588s84.901647-145.588706 193.264942-145.588706z"  horiz-adv-x="1024" />

    
    <glyph glyph-name="pinghengqi" unicode="&#58903;" d="M165.174303 263.974788a72.486788 72.486788 0 0 0 72.393697-72.393697 72.486788 72.486788 0 0 0-72.393697-72.424727 72.486788 72.486788 0 0 0-72.393697 72.424727 72.486788 72.486788 0 0 0 72.393697 72.393697m-31.030303-202.938182v-153.910303a31.030303 31.030303 0 0 1 62.060606 0v153.910303c59.174788 14.118788 103.424 67.118545 103.424 130.544485 0 63.394909-44.249212 116.363636-103.424 130.482424V840.579879a31.030303 31.030303 0 1 1-62.060606 0v-518.516364C75.000242 307.975758 30.72 254.976 30.72 191.581091c0-63.425939 44.280242-116.425697 103.424-130.513455M774.454303 191.550061a72.486788 72.486788 0 0 0 72.393697 72.393697 72.486788 72.486788 0 0 0 72.424727-72.393697 72.486788 72.486788 0 0 0-72.424727-72.393697 72.486788 72.486788 0 0 0-72.393697 72.393697z m103.424-130.513455c59.174788 14.118788 103.45503 67.087515 103.45503 130.513455 0 63.425939-44.280242 116.394667-103.45503 130.513454V840.610909a31.030303 31.030303 0 1 1-62.060606 0v-518.516364c-59.143758-14.149818-103.424-67.118545-103.424-130.544484s44.280242-116.363636 103.424-130.513455v-153.910303a31.030303 31.030303 0 0 1 62.060606 0v153.910303zM434.238061 556.156121a72.486788 72.486788 0 0 0 72.393697 72.393697 72.486788 72.486788 0 0 0 72.424727-72.393697 72.486788 72.486788 0 0 0-72.424727-72.393697 72.486788 72.486788 0 0 0-72.393697 72.393697z m103.424-130.513454c59.174788 14.118788 103.45503 67.087515 103.45503 130.513454 0 63.425939-44.280242 116.394667-103.45503 130.513455V840.610909a31.030303 31.030303 0 1 1-62.060606 0v-153.910303c-59.143758-14.149818-103.424-67.118545-103.424-130.544485s44.280242-116.363636 103.424-130.513454v-518.516364a31.030303 31.030303 0 0 1 62.060606 0v518.516364z"  horiz-adv-x="1024" />

    
    <glyph glyph-name="SanMiAppoutlinei" unicode="&#59030;" d="M821.333333 36.266667c-23.466667 0-42.666667 19.2-42.666666 42.666666V689.066667c0 23.466667 19.2 42.666667 42.666666 42.666666s42.666667-19.2 42.666667-42.666666v-608c0-25.6-19.2-44.8-42.666667-44.8zM241.066667 40.533333c-12.8 0-25.6 4.266667-38.4 10.666667-25.6 14.933333-42.666667 42.666667-42.666667 74.666667V646.4c0 32 17.066667 59.733333 42.666667 74.666667 25.6 14.933333 55.466667 12.8 81.066666-2.133334L704 456.533333c25.6-14.933333 38.4-42.666667 38.4-72.533333s-14.933333-57.6-38.4-72.533333L283.733333 51.2c-12.8-8.533333-27.733333-10.666667-42.666666-10.666667z m4.266666 601.6V128l413.866667 256-413.866667 258.133333z"  horiz-adv-x="1024" />

    
    <glyph glyph-name="SanMiAppoutlinei1" unicode="&#59031;" d="M352 177.066667c-10.666667 0-21.333333 4.266667-29.866667 12.8-17.066667 17.066667-17.066667 42.666667 0 59.733333l322.133334 322.133333c17.066667 17.066667 42.666667 17.066667 59.733333 0 17.066667-17.066667 17.066667-42.666667 0-59.733333L381.866667 189.866667c-8.533333-8.533333-19.2-12.8-29.866667-12.8zM672 177.066667c-10.666667 0-21.333333 4.266667-29.866667 12.8L322.133333 512c-17.066667 17.066667-17.066667 42.666667 0 59.733333 17.066667 17.066667 42.666667 17.066667 59.733334 0L704 249.6c17.066667-17.066667 17.066667-42.666667 0-59.733333-8.533333-8.533333-21.333333-12.8-32-12.8zM512-68.266667C262.4-68.266667 59.733333 134.4 59.733333 384S262.4 836.266667 512 836.266667 964.266667 633.6 964.266667 384 761.6-68.266667 512-68.266667z m0 819.2C309.333333 750.933333 145.066667 586.666667 145.066667 384S309.333333 17.066667 512 17.066667 878.933333 181.333333 878.933333 384 714.666667 750.933333 512 750.933333z"  horiz-adv-x="1024" />

    
    <glyph glyph-name="SanMiAppoutlinei2" unicode="&#59032;" d="M789.333333 44.8c-14.933333 0-29.866667 4.266667-42.666666 12.8L326.4 317.866667c-25.6 14.933333-38.4 42.666667-38.4 72.533333s14.933333 57.6 38.4 72.533333L746.666667 723.2c25.6 14.933333 55.466667 17.066667 81.066666 2.133333 25.6-14.933333 42.666667-42.666667 42.666667-74.666666V128c0-32-17.066667-59.733333-42.666667-74.666667-12.8-6.4-25.6-8.533333-38.4-8.533333z m-4.266666 601.6l-413.866667-256 413.866667-256v512zM209.066667 44.8c-23.466667 0-42.666667 19.2-42.666667 42.666667V695.466667c0 23.466667 19.2 42.666667 42.666667 42.666666s42.666667-19.2 42.666666-42.666666v-608c0-23.466667-19.2-42.666667-42.666666-42.666667z"  horiz-adv-x="1024" />

    
    <glyph glyph-name="SanMiAppoutlinei3" unicode="&#59033;" d="M853.333333 657.066667H170.666667c-23.466667 0-42.666667 19.2-42.666667 42.666666s19.2 42.666667 42.666667 42.666667h682.666666c23.466667 0 42.666667-19.2 42.666667-42.666667s-19.2-42.666667-42.666667-42.666666zM853.333333 341.333333H170.666667c-23.466667 0-42.666667 19.2-42.666667 42.666667s19.2 42.666667 42.666667 42.666667h682.666666c23.466667 0 42.666667-19.2 42.666667-42.666667s-19.2-42.666667-42.666667-42.666667zM563.2 46.933333H170.666667c-23.466667 0-42.666667 19.2-42.666667 42.666667s19.2 42.666667 42.666667 42.666667h392.533333c23.466667 0 42.666667-19.2 42.666667-42.666667s-19.2-42.666667-42.666667-42.666667zM827.733333-42.666667c-10.666667 0-23.466667 2.133333-34.133333 8.533334l-113.066667 66.133333c-21.333333 12.8-34.133333 34.133333-34.133333 57.6s12.8 46.933333 34.133333 57.6l113.066667 66.133333c21.333333 12.8 46.933333 12.8 68.266667 0s34.133333-34.133333 34.133333-57.6v-130.133333c0-23.466667-12.8-46.933333-34.133333-57.6-10.666667-6.4-23.466667-10.666667-34.133334-10.666667z m8.533334 83.2z m-87.466667 49.066667l59.733333-34.133333v68.266666l-59.733333-34.133333z"  horiz-adv-x="1024" />

    
    <glyph glyph-name="SanMiAppoutlinei4" unicode="&#59034;" d="M192 219.733333c-23.466667 0-46.933333 12.8-57.6 34.133334l-66.133333 113.066666c-12.8 21.333333-12.8 46.933333 0 68.266667S102.4 469.333333 125.866667 469.333333H256c23.466667 0 46.933333-12.8 57.6-34.133333 12.8-21.333333 12.8-46.933333 0-68.266667l-66.133333-113.066666c-8.533333-21.333333-32-34.133333-55.466667-34.133334z m21.333333 55.466667zM157.866667 384L192 324.266667l34.133333 59.733333H157.866667zM552.533333-21.333333c-40.533333 0-81.066667 6.4-117.333333 17.066666-23.466667 6.4-34.133333 29.866667-27.733333 53.333334 6.4 23.466667 32 34.133333 53.333333 27.733333 29.866667-8.533333 59.733333-12.8 93.866667-12.8 179.2 0 324.266667 145.066667 324.266666 324.266667 0 179.2-145.066667 324.266667-324.266666 324.266666-155.733333 0-290.133333-110.933333-320-264.533333-4.266667-23.466667-25.6-38.4-49.066667-34.133333-23.466667 4.266667-38.4 25.6-34.133333 49.066666C187.733333 657.066667 356.266667 797.866667 554.666667 797.866667c226.133333 0 409.6-183.466667 409.6-409.6S780.8-21.333333 552.533333-21.333333z"  horiz-adv-x="1024" />

    
    <glyph glyph-name="SanMiAppoutlinei5" unicode="&#59035;" d="M518.4-68.266667C273.066667-68.266667 74.666667 134.4 74.666667 384S273.066667 836.266667 518.4 836.266667 964.266667 633.6 964.266667 384s-200.533333-452.266667-445.866667-452.266667z m0 819.2C320 750.933333 157.866667 586.666667 157.866667 384S320 17.066667 518.4 17.066667c198.4 0 360.533333 164.266667 360.533333 366.933333S716.8 750.933333 518.4 750.933333zM509.866667 288c-23.466667 0-42.666667 19.2-42.666667 42.666667V625.066667c0 23.466667 19.2 42.666667 42.666667 42.666666s42.666667-19.2 42.666666-42.666666v-294.4c0-23.466667-19.2-42.666667-42.666666-42.666667zM654.933333 138.666667c-10.666667 0-21.333333 4.266667-29.866666 12.8l-145.066667 145.066666c-17.066667 17.066667-17.066667 42.666667 0 59.733334 17.066667 17.066667 42.666667 17.066667 59.733333 0l145.066667-145.066667c17.066667-17.066667 17.066667-42.666667 0-59.733333-8.533333-8.533333-19.2-12.8-29.866667-12.8z"  horiz-adv-x="1024" />

    
    <glyph glyph-name="SanMiAppoutlinei6" unicode="&#59036;" d="M430.933333 51.2c-211.2 0-384 172.8-384 384s172.8 384 384 384 384-172.8 384-384-170.666667-384-384-384z m0 682.666667c-164.266667 0-298.666667-134.4-298.666666-298.666667s134.4-298.666667 298.666666-298.666667 298.666667 134.4 298.666667 298.666667-132.266667 298.666667-298.666667 298.666667zM844.8 8.533333c-10.666667 0-21.333333 4.266667-29.866667 12.8l-85.333333 85.333334c-17.066667 17.066667-17.066667 42.666667 0 59.733333 17.066667 17.066667 42.666667 17.066667 59.733333 0l85.333334-85.333333c17.066667-17.066667 17.066667-42.666667 0-59.733334-8.533333-8.533333-19.2-12.8-29.866667-12.8z"  horiz-adv-x="1024" />

    
    <glyph glyph-name="SanMiAppoutlinei7" unicode="&#59037;" d="M512-14.933333c-115.2 0-226.133333 49.066667-300.8 136.533333-14.933333 17.066667-12.8 44.8 4.266667 59.733333 17.066667 14.933333 44.8 12.8 59.733333-4.266666 59.733333-68.266667 147.2-108.8 236.8-108.8 89.6 0 177.066667 38.4 236.8 106.666666 14.933333 17.066667 42.666667 19.2 59.733333 4.266667 17.066667-14.933333 19.2-42.666667 4.266667-59.733333-76.8-85.333333-185.6-134.4-300.8-134.4zM243.2 576c-10.666667 0-19.2 4.266667-27.733333 10.666667-17.066667 14.933333-19.2 42.666667-4.266667 59.733333 76.8 87.466667 185.6 136.533333 300.8 136.533333s224-49.066667 300.8-136.533333c14.933333-17.066667 12.8-44.8-4.266667-59.733333-17.066667-14.933333-44.8-12.8-59.733333 4.266666-59.733333 68.266667-147.2 106.666667-236.8 106.666667-91.733333 0-177.066667-38.4-236.8-108.8-8.533333-8.533333-21.333333-12.8-32-12.8zM153.6 424.533333c-12.8 0-25.6 4.266667-36.266667 10.666667-19.2 12.8-32 36.266667-29.866666 59.733333l8.533333 130.133334c2.133333 23.466667 14.933333 44.8 36.266667 55.466666s46.933333 8.533333 68.266666-4.266666l108.8-72.533334c19.2-12.8 32-36.266667 29.866667-59.733333s-14.933333-44.8-36.266667-55.466667l-117.333333-59.733333c-10.666667-2.133333-21.333333-4.266667-32-4.266667z m-8.533333 83.2z m32 83.2l-4.266667-68.266666 61.866667 29.866666-57.6 38.4zM849.066667 66.133333c-10.666667 0-23.466667 2.133333-34.133334 8.533334l-113.066666 66.133333c-21.333333 12.8-34.133333 34.133333-34.133334 57.6s12.8 46.933333 34.133334 57.6l113.066666 66.133333c21.333333 12.8 46.933333 12.8 68.266667 0s34.133333-34.133333 34.133333-57.6v-130.133333c0-23.466667-12.8-46.933333-34.133333-57.6-10.666667-6.4-21.333333-10.666667-34.133333-10.666667z m-76.8 134.4l59.733333-34.133333V234.666667l-59.733333-34.133334z m87.466666 49.066667z m-21.333333 36.266667z"  horiz-adv-x="1024" />

    
    <glyph glyph-name="SanMiAppoutlinei8" unicode="&#59038;" d="M200.533333 128c-70.4 0-128 57.6-128 128s57.6 128 128 128 128-57.6 128-128-57.6-128-128-128z m0 170.666667c-23.466667 0-42.666667-19.2-42.666666-42.666667s19.2-42.666667 42.666666-42.666667 42.666667 19.2 42.666667 42.666667-19.2 42.666667-42.666667 42.666667zM603.733333 544c-70.4 0-128 57.6-128 128s57.6 128 128 128 128-57.6 128-128-57.6-128-128-128z m0 170.666667c-23.466667 0-42.666667-19.2-42.666666-42.666667s19.2-42.666667 42.666666-42.666667 42.666667 19.2 42.666667 42.666667-19.2 42.666667-42.666667 42.666667zM849.066667-42.666667c-70.4 0-128 57.6-128 128s57.6 128 128 128 128-57.6 128-128-57.6-128-128-128z m0 170.666667c-23.466667 0-42.666667-19.2-42.666667-42.666667s19.2-42.666667 42.666667-42.666666 42.666667 19.2 42.666666 42.666666-19.2 42.666667-42.666666 42.666667zM761.6 32c-4.266667 0-6.4 0-10.666667 2.133333l-486.4 117.333334c-23.466667 6.4-36.266667 27.733333-32 51.2 6.4 23.466667 27.733333 36.266667 51.2 32l486.4-117.333334c23.466667-6.4 36.266667-27.733333 32-51.2-2.133333-19.2-21.333333-34.133333-40.533333-34.133333zM264.533333 288c-10.666667 0-21.333333 4.266667-29.866666 12.8-17.066667 17.066667-17.066667 42.666667 0 59.733333l277.333333 277.333334c17.066667 17.066667 42.666667 17.066667 59.733333 0 17.066667-17.066667 17.066667-42.666667 0-59.733334l-277.333333-277.333333c-8.533333-8.533333-19.2-12.8-29.866667-12.8z"  horiz-adv-x="1024" />

    
    <glyph glyph-name="SanMiAppoutlinei9" unicode="&#59039;" d="M618.666667 25.6c-83.2 0-149.333333 51.2-149.333334 119.466667s66.133333 119.466667 149.333334 119.466666c27.733333 0 53.333333-6.4 74.666666-14.933333l40.533334 345.6c4.266667 27.733333 12.8 51.2 27.733333 72.533333 10.666667 17.066667 25.6 29.866667 40.533333 38.4 2.133333 2.133333 6.4 2.133333 8.533334 4.266667l85.333333 25.6c21.333333 6.4 42.666667-2.133333 51.2-21.333333 8.533333-19.2 2.133333-42.666667-14.933333-53.333334-10.666667-6.4-25.6-32-27.733334-57.6-2.133333-14.933333 2.133333-23.466667 2.133334-23.466666 21.333333-8.533333 34.133333-32 25.6-55.466667-8.533333-21.333333-32-34.133333-53.333334-25.6-34.133333 12.8-55.466667 40.533333-59.733333 78.933333L768 140.8c-2.133333-66.133333-66.133333-115.2-149.333333-115.2z m0 151.466667c-38.4 0-64-19.2-64-34.133334s25.6-34.133333 64-34.133333c34.133333 0 59.733333 17.066667 64 29.866667V145.066667c-2.133333 12.8-27.733333 32-64 32zM603.733333 266.666667H136.533333c-23.466667 0-42.666667 19.2-42.666666 42.666666s19.2 42.666667 42.666666 42.666667h467.2c23.466667 0 42.666667-19.2 42.666667-42.666667s-19.2-42.666667-42.666667-42.666666zM381.866667 87.466667H136.533333c-23.466667 0-42.666667 19.2-42.666666 42.666666s19.2 42.666667 42.666666 42.666667h245.333334c23.466667 0 42.666667-19.2 42.666666-42.666667s-19.2-42.666667-42.666666-42.666666zM603.733333 437.333333H136.533333c-23.466667 0-42.666667 19.2-42.666666 42.666667s19.2 42.666667 42.666666 42.666667h467.2c23.466667 0 42.666667-19.2 42.666667-42.666667s-19.2-42.666667-42.666667-42.666667zM603.733333 608H136.533333c-23.466667 0-42.666667 19.2-42.666666 42.666667s19.2 42.666667 42.666666 42.666666h467.2c23.466667 0 42.666667-19.2 42.666667-42.666666s-19.2-42.666667-42.666667-42.666667z"  horiz-adv-x="1024" />

    
    <glyph glyph-name="1_music82" unicode="&#59049;" d="M686.08 448L339.2 688.64c-34.56 24.32-83.2-1.28-83.2-43.52v-481.28c0-42.24 47.36-67.84 83.2-43.52l346.88 240.64c29.44 21.76 29.44 66.56 0 87.04zM746.24 110.08c-21.76 0-38.4 16.64-38.4 38.4v512c0 21.76 16.64 38.4 38.4 38.4s38.4-16.64 38.4-38.4v-512c0-20.48-16.64-38.4-38.4-38.4z"  horiz-adv-x="1024" />

    
    <glyph glyph-name="1_music83" unicode="&#59052;" d="M381.44 318.72l346.88-240.64c34.56-24.32 83.2 1.28 83.2 43.52V602.88c0 42.24-47.36 67.84-83.2 43.52L381.44 405.76c-30.72-20.48-30.72-65.28 0-87.04zM320 67.84c-21.76 0-38.4 16.64-38.4 38.4v512c0 21.76 16.64 38.4 38.4 38.4s38.4-16.64 38.4-38.4v-512c0-20.48-16.64-38.4-38.4-38.4z"  horiz-adv-x="1024" />

    
    <glyph glyph-name="1_music90" unicode="&#59053;" d="M968.96 495.36c0 5.12 0 10.24-1.28 14.08v3.84 6.4c0 2.56-1.28 3.84-1.28 7.68v1.28c-1.28 5.12-1.28 11.52-2.56 16.64 0 1.28-1.28 2.56-1.28 3.84-2.56 7.68-3.84 14.08-6.4 20.48 0 1.28-1.28 2.56-1.28 3.84-2.56 5.12-5.12 12.8-7.68 19.2-14.08 30.72-34.56 57.6-61.44 80.64-5.12 3.84-10.24 8.96-16.64 14.08l-3.84 2.56c-6.4 3.84-12.8 7.68-17.92 11.52-1.28 0-1.28 1.28-1.28 1.28-6.4 3.84-11.52 6.4-17.92 8.96l-3.84 1.28-19.2 7.68h-2.56c-6.4 2.56-12.8 3.84-19.2 5.12l-2.56 1.28c-6.4 1.28-12.8 2.56-20.48 3.84h-3.84c-5.12 1.28-10.24 1.28-16.64 1.28h-34.56c-2.56 0-6.4 0-8.96-1.28-3.84 0-7.68-1.28-11.52-1.28h-7.68c-8.96-1.28-16.64-3.84-24.32-5.12l-2.56-1.28h-1.28c-24.32-7.68-46.08-17.92-66.56-30.72-20.48 14.08-43.52 24.32-66.56 30.72h-1.28H510.72c-7.68 2.56-16.64 3.84-25.6 6.4h-3.84c-3.84 0-7.68 1.28-11.52 1.28-2.56 0-6.4 0-8.96 1.28h-34.56c-5.12 0-10.24-1.28-16.64-1.28h-3.84c-6.4-1.28-14.08-2.56-20.48-3.84l-3.84-1.28c-6.4-1.28-12.8-3.84-17.92-5.12 0 0-1.28 0-2.56-1.28l-19.2-7.68-3.84-1.28c-5.12-2.56-11.52-5.12-16.64-8.96 0 0-1.28-1.28-2.56-1.28-6.4-3.84-11.52-7.68-17.92-11.52-1.28-1.28-2.56-2.56-3.84-2.56-6.4-5.12-11.52-8.96-16.64-14.08-25.6-23.04-46.08-49.92-61.44-80.64-3.84-7.68-6.4-14.08-7.68-19.2 0-1.28-1.28-2.56-1.28-3.84-2.56-6.4-3.84-12.8-6.4-20.48 0-1.28-1.28-2.56-1.28-3.84-1.28-5.12-2.56-10.24-2.56-15.36v-2.56c0-2.56-1.28-3.84-1.28-6.4s0-5.12-1.28-6.4v-3.84c0-5.12-1.28-10.24-1.28-15.36v-3.84c-1.28-65.28 24.32-129.28 69.12-176.64l3.84-3.84 222.72-222.72c24.32-24.32 56.32-37.12 90.88-37.12s66.56 12.8 90.88 37.12L896 311.04l3.84 3.84c44.8 47.36 70.4 111.36 69.12 176.64v3.84z"  horiz-adv-x="1024" />

    
    <glyph glyph-name="1_music89" unicode="&#59056;" d="M481.28 49.92c-34.56 0-66.56 12.8-90.88 37.12L166.4 311.04l-3.84 3.84c-44.8 47.36-70.4 111.36-69.12 176.64v3.84c0 5.12 0 8.96 1.28 14.08v3.84 6.4c0 2.56 1.28 3.84 1.28 6.4v2.56c1.28 5.12 1.28 11.52 2.56 16.64 0 1.28 1.28 2.56 1.28 3.84 2.56 7.68 3.84 14.08 6.4 20.48 0 1.28 1.28 2.56 1.28 3.84 1.28 5.12 3.84 11.52 7.68 19.2 14.08 30.72 34.56 57.6 61.44 80.64 5.12 3.84 10.24 8.96 16.64 14.08l3.84 2.56c6.4 3.84 11.52 7.68 17.92 11.52 0 0 1.28 1.28 2.56 1.28 6.4 3.84 11.52 6.4 16.64 8.96l3.84 1.28 19.2 7.68s1.28 0 2.56 1.28c6.4 2.56 12.8 3.84 17.92 5.12l3.84 1.28 19.2 3.84h3.84c6.4 1.28 11.52 1.28 16.64 1.28h34.56c3.84 0 6.4 0 8.96-1.28 3.84 0 7.68-1.28 11.52-1.28h3.84c8.96-1.28 17.92-3.84 25.6-6.4h5.12c24.32-7.68 46.08-17.92 66.56-30.72 20.48 14.08 43.52 24.32 66.56 30.72H547.84c7.68 2.56 16.64 3.84 24.32 5.12 2.56 0 3.84 0 5.12 1.28 3.84 0 7.68 1.28 11.52 1.28 2.56 0 6.4 0 8.96 1.28h34.56c5.12 0 11.52-1.28 16.64-1.28h3.84c6.4-1.28 14.08-2.56 20.48-3.84l2.56-1.28c7.68-1.28 14.08-3.84 19.2-5.12l2.56-1.28 19.2-7.68 3.84-1.28c6.4-2.56 12.8-6.4 17.92-8.96 0 0 1.28 0 1.28-1.28 5.12-2.56 11.52-6.4 17.92-11.52 1.28-1.28 2.56-1.28 3.84-2.56 6.4-5.12 11.52-8.96 16.64-12.8 25.6-23.04 46.08-49.92 61.44-80.64 3.84-6.4 6.4-14.08 7.68-19.2 0-1.28 1.28-2.56 1.28-3.84 2.56-6.4 3.84-12.8 6.4-21.76 0 0 0-1.28 1.28-2.56 1.28-5.12 2.56-10.24 2.56-16.64v-2.56c0-2.56 1.28-3.84 1.28-6.4s0-5.12 1.28-7.68v-3.84c0-5.12 1.28-10.24 1.28-15.36v-3.84c1.28-65.28-24.32-129.28-69.12-176.64l-3.84-3.84-217.6-221.44c-24.32-24.32-56.32-38.4-90.88-38.4zM171.52 492.8v-2.56c-1.28-44.8 16.64-89.6 47.36-121.6 1.28-1.28 1.28-2.56 2.56-2.56l222.72-222.72c19.2-19.2 53.76-19.2 72.96 0l222.72 222.72 2.56 2.56c32 33.28 48.64 76.8 47.36 122.88v2.56c0 2.56 0 6.4-1.28 8.96v2.56 5.12c0 2.56-1.28 3.84-1.28 5.12v1.28c0 3.84-1.28 6.4-1.28 10.24 0 1.28 0 2.56-1.28 2.56-1.28 5.12-2.56 8.96-3.84 14.08 0 1.28-1.28 2.56-1.28 3.84-1.28 3.84-3.84 8.96-5.12 12.8-10.24 21.76-24.32 39.68-42.24 56.32-3.84 3.84-7.68 6.4-11.52 8.96l-2.56 1.28c-3.84 2.56-7.68 5.12-12.8 7.68 0 0-1.28 0-1.28 1.28-3.84 1.28-7.68 3.84-11.52 6.4l-2.56 1.28c-3.84 2.56-8.96 3.84-12.8 5.12h-1.28c-3.84 1.28-7.68 2.56-12.8 3.84h-1.28-1.28c-5.12 1.28-8.96 2.56-14.08 2.56h-2.56c-3.84 0-7.68 1.28-11.52 1.28H601.6c-2.56 0-5.12-1.28-7.68-1.28h-3.84c-6.4-1.28-11.52-2.56-17.92-3.84h-1.28c-25.6-7.68-46.08-19.2-65.28-35.84-14.08-11.52-35.84-11.52-49.92 0-19.2 16.64-40.96 28.16-65.28 35.84h-1.28-1.28c-6.4 1.28-11.52 2.56-17.92 3.84h-2.56c-3.84 1.28-6.4 1.28-8.96 1.28h-30.72c-3.84 0-7.68 0-11.52-1.28h-2.56c-5.12-1.28-8.96-1.28-14.08-2.56h-1.28-1.28c-3.84-1.28-8.96-2.56-12.8-3.84h-1.28c-3.84-1.28-8.96-2.56-12.8-5.12l-1.28-2.56c-3.84-2.56-7.68-3.84-12.8-6.4 0 0-1.28 0-1.28-1.28l-11.52-7.68-2.56-2.56c-3.84-2.56-7.68-6.4-11.52-8.96-17.92-15.36-32-34.56-42.24-55.04-2.56-3.84-3.84-8.96-5.12-12.8 0-1.28-1.28-2.56-1.28-3.84-1.28-3.84-2.56-7.68-3.84-14.08 0 0 0-2.56-1.28-2.56-1.28-2.56-1.28-6.4-1.28-10.24v-1.28c0-1.28 0-2.56-1.28-3.84v-8.96c-1.28-2.56-1.28-5.12-1.28-8.96z m627.2-177.92z m-7.68 177.92z m-230.4 193.28z"  horiz-adv-x="1024" />

    
    <glyph glyph-name="caidan" unicode="&#58909;" d="M102.28 689.55l175.64 101.4c21.42 12.37 48.2-3.09 48.2-27.83v-202.81c0-24.74-26.78-40.2-48.2-27.83L102.28 633.9c-21.42 12.36-21.42 43.28 0 55.65zM919.06 301H120.32c-13.25 0-24 10.75-24 24s10.75 24 24 24h798.74c13.25 0 24-10.75 24-24s-10.75-24-24-24zM919.06 637.72H120.32c-13.25 0-24 10.75-24 24s10.75 24 24 24h798.74c13.25 0 24-10.75 24-24s-10.75-24-24-24zM919.06-35.73H120.32c-13.25 0-24 10.75-24 24s10.75 24 24 24h798.74c13.25 0 24-10.75 24-24s-10.75-24-24-24z"  horiz-adv-x="1024" />

    
    <glyph glyph-name="bianji" unicode="&#58910;" d="M845.12 334.48H123.11c-13.25 0-24 10.75-24 24s10.75 24 24 24h722.01c13.25 0 24-10.75 24-24s-10.74-24-24-24zM845.12 695.49H123.11c-13.25 0-24 10.75-24 24s10.75 24 24 24h722.01c13.25 0 24-10.75 24-24s-10.74-24-24-24zM845.12-26.53H123.11c-13.25 0-24 10.75-24 24s10.75 24 24 24h722.01c13.25 0 24-10.75 24-24s-10.74-24-24-24zM656.36 358.48m-90.47 0a90.47 90.47 0 1 1 180.94 0 90.47 90.47 0 1 1-180.94 0Z"  horiz-adv-x="1024" />

    
    <glyph glyph-name="gengduo" unicode="&#58911;" d="M511.96 743.72m-71.14 0a71.14 71.14 0 1 1 142.28 0 71.14 71.14 0 1 1-142.28 0ZM511.96 383.8m-71.14 0a71.14 71.14 0 1 1 142.28 0 71.14 71.14 0 1 1-142.28 0ZM511.96 23.87m-71.14 0a71.14 71.14 0 1 1 142.28 0 71.14 71.14 0 1 1-142.28 0Z"  horiz-adv-x="1024" />

    
    <glyph glyph-name="huiyuanzhongxin" unicode="&#58912;" d="M509.19-32.07h-0.01c-14.8 0-28.64 7.28-37.02 19.48l-385 559.77c-12.15 17.67-12.09 41.36 0.15 58.97l56.75 81.68 63.9 92.2a45.71 45.71 0 0 0 37.55 19.66l538.28-0.04c14.97 0 29-7.34 37.53-19.64l64.02-92.23 51.29-73.87c12.24-17.6 12.29-41.31 0.12-58.97L546.22-12.61a44.948 44.948 0 0 0-37.03-19.46zM246.71 751.67l-63.23-91.22-56.77-81.7a3.872 3.872 0 0 1-0.01-4.38l382.48-556.11L897.2 582.14c0.9 1.31 0.9 3.06-0.01 4.37l-51.3 73.88-63.34 91.25-535.84 0.03zM510.01 122.62s0.01 0 0 0c-12.7 0-24.59 6.23-31.81 16.67L265.83 448.11c-7.51 10.92-4.75 25.86 6.18 33.37 10.92 7.51 25.86 4.75 33.37-6.18l204.63-297.57L714.7 475.28c7.51 10.92 22.45 13.68 33.38 6.17 10.92-7.51 13.68-22.46 6.17-33.38l-212.4-308.74a38.675 38.675 0 0 0-31.84-16.71z"  horiz-adv-x="1024" />

    
    <glyph glyph-name="faxian" unicode="&#58913;" d="M693.21 501.83c-5.9 0-11.81 2.16-16.45 6.53-48.94 46.08-109.48 77.26-175.08 90.18-13.01 2.56-21.47 15.18-18.91 28.18 2.56 13.01 15.18 21.47 28.18 18.91 74.48-14.66 143.19-50.05 198.72-102.32 9.65-9.09 10.11-24.28 1.02-33.93a23.943 23.943 0 0 0-17.48-7.55zM418.43 55.83c-30.23 0-59.21 7.07-83.68 20.66-34.2 19-55.76 48.32-60.7 82.56-4.94 34.25 7.44 68.47 34.87 96.36 25.71 26.14 62.01 43.74 102.2 49.54 40.2 5.81 79.99-0.8 112.04-18.61 34.2-18.99 55.76-48.32 60.7-82.56 4.94-34.24-7.44-68.47-34.87-96.36-25.71-26.14-62.01-43.74-102.2-49.54-9.51-1.37-19-2.05-28.36-2.05z m-3.89 225.37l3.43-23.75c-29.87-4.31-56.45-16.99-74.84-35.69-16.67-16.95-24.34-36.79-21.59-55.85s15.71-35.91 36.5-47.46c22.93-12.74 52.01-17.37 81.88-13.06 29.87 4.31 56.45 16.99 74.84 35.69 16.67 16.95 24.34 36.79 21.58 55.85-2.75 19.06-15.71 35.92-36.5 47.46-22.93 12.74-52.01 17.38-81.88 13.06l-3.42 23.75zM558.6 187.44c-11.74 0-22 8.62-23.72 20.57l-59.34 410.9c-1.89 13.12 7.2 25.29 20.32 27.18 13.12 1.9 25.29-7.2 27.18-20.32l59.34-410.9c1.89-13.12-7.21-25.29-20.32-27.18-1.16-0.17-2.32-0.25-3.46-0.25zM484.11-86.96c-60.12 0-118.46 11.78-173.39 35.01-53.05 22.44-100.68 54.55-141.58 95.45-40.9 40.9-73.02 88.54-95.45 141.58-23.23 54.93-35.01 113.27-35.01 173.39 0 60.12 11.78 118.46 35.01 173.39 22.44 53.05 54.55 100.68 95.45 141.58 40.9 40.9 88.54 73.02 141.58 95.45 54.93 23.23 113.27 35.01 173.39 35.01s118.46-11.78 173.39-35.01c53.05-22.44 100.68-54.55 141.58-95.45 40.9-40.9 73.01-88.54 95.45-141.58 23.23-54.93 35.01-113.27 35.01-173.39 0-60.12-11.78-118.46-35.01-173.39-22.44-53.04-54.55-100.68-95.45-141.58-40.9-40.9-88.54-73.01-141.58-95.45-54.93-23.23-113.27-35.01-173.39-35.01z m0 842.88c-53.66 0-105.71-10.5-154.69-31.22-47.32-20.02-89.83-48.68-126.34-85.18-36.51-36.51-65.17-79.01-85.18-126.34-20.72-48.98-31.22-101.03-31.22-154.69 0-53.67 10.5-105.71 31.22-154.69 20.02-47.32 48.68-89.83 85.18-126.34 36.51-36.51 79.01-65.17 126.34-85.18 48.98-20.72 101.03-31.22 154.69-31.22s105.71 10.5 154.69 31.22c47.32 20.02 89.83 48.68 126.34 85.18s65.17 79.01 85.18 126.34c20.72 48.98 31.22 101.03 31.22 154.69s-10.5 105.71-31.22 154.69c-20.02 47.32-48.68 89.83-85.18 126.34-36.51 36.51-79.01 65.17-126.34 85.18-48.98 20.72-101.03 31.22-154.69 31.22z"  horiz-adv-x="1024" />

    
    <glyph glyph-name="kaishi" unicode="&#58914;" d="M511.96 383.79999999999995m-433.5 0a433.5 433.5 0 1 1 867 0 433.5 433.5 0 1 1-867 0ZM710.14 399.28L426.28 563.1700000000001c-11.92 6.88-26.82-1.72-26.82-15.49v-327.77c0-13.77 14.9-22.37 26.82-15.49l283.86 163.89c11.92 6.88 11.92 24.09 0 30.97z"  horiz-adv-x="1024" />

    
    <glyph glyph-name="pinlun" unicode="&#58915;" d="M512.06 113.27999999999997c-25.49 0-50.37 1.86-73.94 5.54-13.1 2.04-22.06 14.31-20.02 27.41 2.04 13.1 14.31 22.06 27.41 20.02 21.14-3.29 43.53-4.96 66.55-4.96 204.61 0 371.07 135.2 371.07 301.39 0 166.29-166.46 301.57-371.07 301.57-204.71 0-371.26-135.28-371.26-301.57 0-42.69 10.8-83.93 32.1-122.59 20.81-37.78 50.5-71.17 88.23-99.25 10.63-7.91 12.84-22.95 4.93-33.58-7.91-10.63-22.95-12.84-33.58-4.93-43.28 32.21-77.47 70.76-101.62 114.59-25.26 45.83-38.06 94.87-38.06 145.75 0 47.81 11.35 94.14 33.72 137.7 21.41 41.69 51.97 79.06 90.81 111.05 78.95 65.02 183.61 100.82 294.72 100.82 111.1 0 215.74-35.81 294.63-100.83 38.82-31.99 69.35-69.35 90.75-111.05 22.35-43.56 33.69-89.89 33.69-137.69 0-47.77-11.33-94.06-33.69-137.59-21.4-41.67-51.93-79.02-90.75-110.99-78.89-65.01-183.53-100.81-294.62-100.81zM227-44.690000000000055c-10.38 0-20.82 2.98-30.21 9-20.57 13.19-30 37.06-24.03 60.81l50.77 202.3c3.23 12.86 16.27 20.66 29.12 17.44 12.86-3.23 20.66-16.26 17.44-29.12l-50.77-202.31c-1.17-4.66 1.19-7.31 3.39-8.71 2.15-1.38 5.47-2.41 9.08 0.49l195.05 156.07c10.35 8.28 25.45 6.61 33.73-3.75 8.28-10.35 6.6-25.45-3.74-33.73L261.79-32.25c-10.28-8.26-22.5-12.44-34.79-12.44z"  horiz-adv-x="1024" />

    
    <glyph glyph-name="pingjia" unicode="&#58916;" d="M183.67 138.69c-13.25 0-24 10.75-24 24v51.13c0 21.27 8.28 41.26 23.32 56.3l387.03 387.02c9.37 9.37 24.57 9.37 33.94 0 9.37-9.37 9.37-24.57 0-33.94L216.93 236.18c-5.97-5.97-9.26-13.91-9.26-22.36v-51.13c0-13.25-10.75-24-24-24zM288.32 34.03c-13.24 0-23.99 10.73-24 23.98-0.01 13.25 10.72 24.01 23.98 24.02l51.24 0.05c8.43 0.01 16.36 3.3 22.32 9.26l401.01 401.01c39.94 39.94 39.94 104.94 0 144.88s-104.94 39.94-144.88 0l-19.37-19.37c-9.37-9.37-24.57-9.37-33.94 0-9.37 9.37-9.37 24.57 0 33.94l19.37 19.37c58.66 58.66 154.1 58.66 212.76 0s58.66-154.1 0-212.76L395.8 57.4c-15.01-15.01-34.97-23.29-56.21-23.32l-51.25-0.05h-0.02zM199.8 34.04c-22.13 0-40.13 18-40.13 40.13V213.82c0 21.27 8.28 41.26 23.32 56.3l33.81 33.81c9.37 9.37 24.57 9.37 33.94 0 9.37-9.37 9.37-24.57 0-33.94l-33.81-33.81c-5.97-5.97-9.26-13.91-9.26-22.36v-131.78h80.65l51.22 0.05c8.43 0.01 16.36 3.3 22.32 9.26l33.76 33.76c9.37 9.37 24.57 9.37 33.94 0 9.37-9.37 9.37-24.57 0-33.94l-33.76-33.76c-15.01-15.01-34.97-23.29-56.21-23.32l-51.25-0.05H199.8zM428.87 105.55c-6.14 0-12.28 2.34-16.97 7.03L235.65 288.83c-9.37 9.37-9.37 24.57 0 33.94 9.37 9.37 24.57 9.37 33.94 0l176.25-176.25c9.37-9.37 9.37-24.57 0-33.94a23.919 23.919 0 0 0-16.97-7.03z"  horiz-adv-x="1024" />

    
    <glyph glyph-name="qita" unicode="&#58917;" d="M903.43 334.48H148.8c-13.25 0-24 10.75-24 24s10.75 24 24 24h754.63c13.25 0 24-10.75 24-24s-10.75-24-24-24zM903.43 691.69H148.8c-13.25 0-24 10.75-24 24s10.75 24 24 24h754.63c13.25 0 24-10.75 24-24s-10.75-24-24-24zM903.43-22.73H148.8c-13.25 0-24 10.75-24 24s10.75 24 24 24h754.63c13.25 0 24-10.75 24-24s-10.75-24-24-24z"  horiz-adv-x="1024" />

    
    <glyph glyph-name="sousuo" unicode="&#58918;" d="M784.12-47.64c-7.63 0-15.12 3.63-19.78 10.38L612.42 183.13c-7.52 10.91-4.77 25.86 6.14 33.38 10.91 7.53 25.86 4.77 33.38-6.14l151.92-220.39c7.52-10.91 4.77-25.86-6.14-33.38-4.16-2.87-8.9-4.24-13.6-4.24zM473.02 138.8c-83.58 0-162.15 32.55-221.25 91.65-59.1 59.1-91.65 137.67-91.65 221.25 0 83.58 32.55 162.15 91.65 221.25 59.1 59.1 137.68 91.65 221.25 91.65s162.15-32.55 221.25-91.65c59.1-59.1 91.65-137.67 91.65-221.25 0-83.58-32.55-162.16-91.65-221.25-59.1-59.1-137.67-91.65-221.25-91.65z m0 577.8c-70.76 0-137.28-27.55-187.31-77.59-50.03-50.03-77.59-116.56-77.59-187.31 0-70.76 27.55-137.28 77.59-187.31 50.03-50.03 116.56-77.59 187.31-77.59s137.28 27.55 187.31 77.59c50.03 50.03 77.59 116.56 77.59 187.31 0 70.76-27.55 137.28-77.59 187.31-50.03 50.04-116.55 77.59-187.31 77.59z"  horiz-adv-x="1024" />

    
    <glyph glyph-name="gerenzhongxin" unicode="&#58919;" d="M484.11 170.51c-83.79 0-162.56 32.63-221.81 91.88s-91.87 138.02-91.87 221.81S203.06 646.75 262.3 706c59.25 59.25 138.02 91.88 221.81 91.88 83.79 0 162.56-32.63 221.81-91.88 59.25-59.25 91.88-138.02 91.88-221.81s-32.63-162.56-91.88-221.81-138.02-91.87-221.81-91.87z m0 579.36c-70.97 0-137.68-27.64-187.86-77.82s-77.82-116.9-77.82-187.86 27.64-137.68 77.82-187.86c50.18-50.18 116.9-77.82 187.86-77.82 70.97 0 137.68 27.64 187.86 77.82 50.18 50.18 77.82 116.9 77.82 187.86s-27.64 137.68-77.82 187.86c-50.18 50.18-116.89 77.82-187.86 77.82zM623.42-80.91H344.8c-40.11 0-72.74 32.63-72.74 72.74v69.7c0 86.55 70.42 156.97 156.97 156.97h110.16c86.55 0 156.97-70.42 156.97-156.97v-69.7c0-40.11-32.63-72.74-72.74-72.74zM429.03 170.5c-60.09 0-108.97-48.88-108.97-108.97v-69.7c0-13.64 11.1-24.74 24.74-24.74h278.62c13.64 0 24.74 11.1 24.74 24.74v69.7c0 60.09-48.88 108.97-108.97 108.97H429.03zM378.15 413.78c-17.56 0-31.8 14.24-31.8 31.8v91.91c0 17.56 14.24 31.8 31.8 31.8 17.56 0 31.8-14.24 31.8-31.8v-91.91c0-17.57-14.24-31.8-31.8-31.8zM595.19 413.78c-17.56 0-31.8 14.24-31.8 31.8v91.91c0 17.56 14.24 31.8 31.8 31.8 17.56 0 31.8-14.24 31.8-31.8v-91.91c-0.01-17.57-14.24-31.8-31.8-31.8z"  horiz-adv-x="1024" />

    
    <glyph glyph-name="saoyisao" unicode="&#58920;" d="M866.52 488.17c-13.25 0-24 10.75-24 24V718.31H641.19c-13.25 0-24 10.75-24 24s10.75 24 24 24h225.33c13.25 0 24-10.75 24-24v-230.14c0-13.25-10.75-24-24-24zM866.52-49.35H641.19c-13.25 0-24 10.75-24 24s10.75 24 24 24h201.33V198.13c0 13.25 10.75 24 24 24s24-10.75 24-24v-223.48c0-13.25-10.75-24-24-24zM98.87 488.17c-13.25 0-24 10.75-24 24V742.31c0 13.25 10.75 24 24 24h228.28c13.25 0 24-10.75 24-24s-10.75-24-24-24H122.87v-206.14c0-13.25-10.75-24-24-24zM327.15-49.35H98.87c-13.25 0-24 10.75-24 24V198.13c0 13.25 10.75 24 24 24s24-10.75 24-24v-199.48h204.28c13.25 0 24-10.75 24-24s-10.75-24-24-24zM870.67 331.16H97.56c-13.25 0-24 10.75-24 24s10.75 24 24 24h773.11c13.25 0 24-10.75 24-24s-10.75-24-24-24z"  horiz-adv-x="1024" />

    
    <glyph glyph-name="xiaoxi" unicode="&#58921;" d="M782.7 48.68H241.22c-78.06 0-141.56 63.5-141.56 141.56 0 51.9 42.22 94.12 94.12 94.12h28.46V517.27c0 77.39 30.14 150.14 84.86 204.86 54.72 54.72 127.48 84.86 204.86 84.86s150.14-30.14 204.86-84.86c54.72-54.72 84.86-127.48 84.86-204.86v-232.91h28.46c51.9 0 94.12-42.22 94.12-94.12 0-78.06-63.5-141.56-141.56-141.56zM193.78 236.36c-25.43 0-46.12-20.69-46.12-46.12 0-51.59 41.97-93.56 93.56-93.56H782.7c51.59 0 93.56 41.97 93.56 93.56 0 25.43-20.69 46.12-46.12 46.12h-35.13c-22.79 0-41.33 18.54-41.33 41.32V517.27c0 64.56-25.14 125.27-70.8 170.92-45.66 45.66-106.36 70.8-170.92 70.8-64.56 0-125.27-25.14-170.92-70.8-45.66-45.66-70.8-106.36-70.8-170.92v-239.58c0-22.79-18.54-41.33-41.33-41.33h-35.13zM512.04-39.4c-49.62 0-89.98 40.37-89.98 89.98 0 10.65 1.83 20.92 5.43 30.52 4.66 12.41 18.49 18.69 30.9 14.04 12.41-4.66 18.7-18.49 14.04-30.9-1.59-4.25-2.37-8.72-2.37-13.66 0-23.15 18.83-41.98 41.98-41.98 23.07 0 41.83 18.83 41.83 41.98 0 4.94-0.78 9.41-2.37 13.66-4.66 12.41 1.63 26.25 14.04 30.9 12.41 4.66 26.25-1.63 30.9-14.04 3.6-9.6 5.43-19.87 5.43-30.52 0-49.62-40.3-89.98-89.83-89.98z"  horiz-adv-x="1024" />

    
    <glyph glyph-name="xinxi" unicode="&#58922;" d="M893.07 40.42H75.16c-13.25 0-24 10.75-24 24V652.54c0 13.25 10.75 24 24 24h817.91c13.25 0 24-10.75 24-24v-588.12c0-13.25-10.74-24-24-24z m-793.91 48h769.91V628.54H99.16v-540.12zM482.47 284.49c-48.11 0-93.3 18.74-127.26 52.76L58.19 634.26a24.01 24.01 0 0 0-7.03 16.97v1.31c0 13.25 10.75 24 24 24h816.01c9.71 0 18.46-5.85 22.17-14.82s1.66-19.29-5.2-26.16L609.8 337.23c-34.01-34.01-79.23-52.74-127.33-52.74zM131.79 628.54l257.37-257.37c24.91-24.95 58.04-38.68 93.31-38.68 35.28 0 68.45 13.74 93.39 38.68l257.37 257.37H131.79z"  horiz-adv-x="1024" />

    
    <glyph glyph-name="yincang" unicode="&#58923;" d="M484.12 265.49c-105.18 0-206.55 29.74-285.44 83.73C118.88 403.84 67.6 479.17 54.3 561.33c-2.12 13.08 6.77 25.41 19.85 27.53 13.09 2.12 25.41-6.77 27.53-19.85 11.18-69.06 55.26-133.05 124.11-180.18 70.98-48.58 162.72-75.34 258.33-75.34 95.65 0 187.41 26.76 258.37 75.34 68.82 47.11 112.88 111.1 124.07 180.18 2.12 13.08 14.44 21.97 27.53 19.85 13.08-2.12 21.97-14.44 19.85-27.53-13.31-82.17-64.57-157.5-144.33-212.11-78.87-53.99-180.26-83.73-285.49-83.73zM107.7 265.06c-4.73 0-9.51 1.4-13.69 4.31-10.88 7.57-13.56 22.53-5.98 33.41l72.69 104.41c7.57 10.88 22.53 13.56 33.41 5.98 10.88-7.57 13.56-22.53 5.98-33.41l-72.69-104.41c-4.67-6.7-12.13-10.29-19.72-10.29zM890.26 265.06c-7.59 0-15.06 3.59-19.73 10.3l-84.07 120.92c-7.57 10.88-4.88 25.84 6 33.41 10.89 7.57 25.84 4.88 33.41-6.01l84.07-120.92c7.57-10.88 4.88-25.84-6-33.41-4.18-2.9-8.95-4.29-13.68-4.29zM498.34 127.79c-13.25 0-24 10.75-24 24V289.63c0 13.25 10.75 24 24 24s24-10.75 24-24v-137.84c0-13.25-10.75-24-24-24zM280.83 172.87c-2.86 0-5.77 0.51-8.6 1.6-12.37 4.75-18.55 18.63-13.8 31.01l44.95 117.08c4.75 12.38 18.63 18.56 31.01 13.8 12.37-4.75 18.55-18.63 13.8-31.01l-44.95-117.08c-3.66-9.54-12.76-15.4-22.41-15.4zM721.83 172.87c-9.64 0-18.73 5.85-22.4 15.39L650.2 316.15c-4.76 12.37 1.41 26.26 13.78 31.02 12.37 4.76 26.26-1.41 31.02-13.78l49.22-127.89c4.76-12.37-1.41-26.26-13.78-31.02a23.944 23.944 0 0 0-8.61-1.61z"  horiz-adv-x="1024" />

    
    <glyph glyph-name="yinlequan" unicode="&#58924;" d="M533.11-77.01c-58.78 0-115.81 11.52-169.52 34.23-51.86 21.94-98.43 53.33-138.42 93.32-39.99 39.99-71.38 86.56-93.32 138.42-22.72 53.7-34.23 110.74-34.23 169.52S109.14 474.29 131.85 528c21.94 51.86 53.33 98.43 93.32 138.42s86.56 71.38 138.42 93.32c53.71 22.72 110.74 34.23 169.52 34.23s115.81-11.52 169.52-34.23c51.86-21.94 98.43-53.33 138.42-93.32 39.99-39.99 71.38-86.56 93.32-138.42 22.71-53.71 34.23-110.74 34.23-169.52s-11.52-115.82-34.23-169.52c-21.94-51.86-53.33-98.43-93.32-138.42-39.99-39.99-86.56-71.38-138.42-93.32-53.71-22.71-110.74-34.23-169.52-34.23z m0 822.98c-52.32 0-103.06-10.24-150.82-30.44-46.14-19.52-87.58-47.46-123.18-83.05-35.59-35.59-63.54-77.04-83.05-123.18-20.2-47.76-30.44-98.5-30.44-150.82s10.24-103.07 30.44-150.82c19.52-46.14 47.46-87.58 83.05-123.18s77.04-63.54 123.18-83.05c47.76-20.2 98.5-30.44 150.82-30.44s103.06 10.24 150.82 30.44c46.14 19.51 87.58 47.46 123.18 83.05s63.54 77.04 83.05 123.18c20.2 47.76 30.44 98.5 30.44 150.82s-10.24 103.06-30.44 150.82c-19.51 46.14-47.46 87.58-83.05 123.18-35.59 35.59-77.04 63.54-123.18 83.05-47.76 20.2-98.5 30.44-150.82 30.44zM443.99 171.38c-8.02 0-16.05 2.11-23.36 6.33-14.62 8.44-23.35 23.56-23.35 40.44V498.81c0 16.89 8.73 32.01 23.35 40.45 14.62 8.44 32.08 8.44 46.7-0.01L710.4 398.92c14.62-8.44 23.35-23.56 23.35-40.44s-8.73-32-23.36-40.44L467.34 177.71c-7.31-4.22-15.33-6.33-23.35-6.33z m1.3 325.18V220.4l239.16 138.08-239.16 138.08zM686.4 357.35z"  horiz-adv-x="1024" />

    
    <glyph glyph-name="tixing" unicode="&#58925;" d="M484.11 25.85c-48.25 0-95.08 9.46-139.18 28.12-42.58 18.01-80.82 43.8-113.66 76.63-32.83 32.83-58.62 71.08-76.63 113.66-18.66 44.1-28.12 90.93-28.12 139.18 0 72.5 21.53 142.23 62.26 201.63 7.5 10.93 22.43 13.72 33.37 6.22 10.93-7.5 13.72-22.43 6.22-33.37-35.23-51.38-53.84-111.72-53.84-174.49 0-82.68 32.21-160.42 90.69-218.9 58.48-58.48 136.22-90.69 218.9-90.69s160.42 32.21 218.9 90.69c58.48 58.48 90.69 136.22 90.69 218.9 0 58.24-16.22 114.85-46.91 163.73l-0.06 0.09C706.23 612.43 643.38 659.93 569.78 681l-0.1 0.03c-27.65 8.05-56.45 12.12-85.58 12.12-24.15 0-48.02-2.77-70.95-8.23-12.89-3.07-25.84 4.9-28.91 17.79-3.07 12.89 4.9 25.84 17.79 28.91 26.57 6.33 54.18 9.53 82.07 9.53 33.67 0 66.96-4.72 98.97-14.03 85.02-24.36 157.61-79.22 204.4-154.48 35.47-56.52 54.22-121.95 54.22-189.2 0-48.25-9.46-95.08-28.12-139.18-18.01-42.58-43.8-80.82-76.63-113.66s-71.07-58.62-113.66-76.63c-44.09-18.66-90.92-28.12-139.17-28.12zM208.57 547.5c-7.29 0-14.21 3.32-18.77 9.04-20.61 25.87-31.51 57.09-31.51 90.3 0 79.96 65.05 145.01 145.01 145.01 25.66 0 50.89-6.81 72.97-19.7 21.36-12.47 39.33-30.31 51.98-51.62 3.9-6.57 4.44-14.62 1.45-21.65a23.994 23.994 0 0 0-16.6-13.97c-75.25-17.64-140.84-62.73-184.7-126.95a24.004 24.004 0 0 0-18.94-10.45c-0.3 0-0.6-0.01-0.89-0.01z m94.73 196.35c-53.49 0-97.01-43.52-97.01-97.01 0-11.04 1.8-21.74 5.29-31.84 41.17 48.57 94.25 85.08 154.1 106.03-17.31 14.48-39.38 22.82-62.38 22.82zM767.13 535.93c-6.29 0-12.57 2.46-17.28 7.34-9.2 9.54-8.92 24.74 0.62 33.94 19.07 18.38 29.57 43.1 29.57 69.62 0 53.49-43.52 97.01-97.01 97.01-35.76 0-68.52-19.6-85.51-51.16-6.28-11.67-20.84-16.04-32.51-9.76-11.67 6.28-16.04 20.84-9.76 32.51 25.37 47.13 74.33 76.4 127.77 76.4 79.96 0 145.01-65.05 145.01-145.01 0-39.67-15.72-76.67-44.25-104.18-4.65-4.48-10.65-6.71-16.65-6.71zM257.53-74.89c-3.13 0-6.31 0.62-9.37 1.92-12.2 5.18-17.89 19.27-12.71 31.47l61.41 144.55c5.18 12.2 19.28 17.89 31.47 12.7 12.2-5.18 17.89-19.27 12.71-31.47l-61.41-144.55c-3.88-9.13-12.76-14.62-22.1-14.62zM720.93-74.89c-9.34 0-18.22 5.48-22.1 14.62l-61.41 144.55c-5.18 12.2 0.5 26.29 12.7 31.47s26.29-0.5 31.47-12.7L743-41.5c5.18-12.2-0.5-26.29-12.7-31.47a23.92 23.92 0 0 0-9.37-1.92zM570.01 273.6c-6.14 0-12.28 2.34-16.97 7.03l-85.9 85.9a24.01 24.01 0 0 0-7.03 16.97V559.93c0 13.25 10.75 24 24 24s24-10.75 24-24v-166.49l78.87-78.87c9.37-9.37 9.37-24.57 0-33.94a23.919 23.919 0 0 0-16.97-7.03z"  horiz-adv-x="1024" />

    
    <glyph glyph-name="xihuan" unicode="&#58926;" d="M539.33-82.45c-14.08 0-28.17 4.12-40.19 12.44-141.31 97.82-246.75 199.63-313.42 302.59-58.22 89.91-85.38 179.83-78.56 260.05 3.82 44.94 17.87 85.23 41.75 119.77 22.7 32.83 54 59.16 90.51 76.17 86.69 40.37 192.98 26.01 284.34-38.43 5.95-4.2 14.66-3.7 21.16 1.2 61.59 46.51 128.45 68.86 193.34 64.62 62.45-4.08 117.38-32.95 154.67-81.29 26.84-34.8 43.45-78.87 48.03-127.44 4.9-51.98-3.52-108.18-25.02-167.05-23.25-63.67-61.48-129.15-113.62-194.64C745.28 73.9 671.49 2.23 583-67.47c-12.65-9.96-28.15-14.98-43.67-14.98z m-196 745.57c-29.29 0-57.63-5.95-83.64-18.06-60.47-28.16-98.63-85.2-104.7-156.49-5.91-69.51 18.65-149.01 71.02-229.9C289.25 161 390.34 63.7 526.46-30.54c8.1-5.61 19.14-5.29 26.83 0.77 162.02 127.61 271.83 261.23 317.55 386.41 19.04 52.12 26.55 101.27 22.32 146.08-3.73 39.53-16.95 75.02-38.25 102.63-28.75 37.27-71.29 59.54-119.79 62.71-53.22 3.48-109.01-15.55-161.28-55.03-23.32-17.61-54.56-18.46-77.74-2.12-48.84 34.45-102.2 52.21-152.77 52.21z"  horiz-adv-x="1024" />

    
    <glyph glyph-name="shezhi" unicode="&#58927;" d="M511.96 265.67c-65.14 0-118.13 52.99-118.13 118.13 0 65.14 52.99 118.13 118.13 118.13 65.14 0 118.13-52.99 118.13-118.13 0-65.14-52.99-118.13-118.13-118.13z m0 188.26c-38.67 0-70.13-31.46-70.13-70.13s31.46-70.13 70.13-70.13 70.13 31.46 70.13 70.13-31.46 70.13-70.13 70.13zM511.98-41.46c-52.52 0-95.68 40.9-99.28 92.53a345.538 345.538 0 0 0-65.81 27.24c-18.1-15.76-41.01-24.36-65.24-24.36-26.58 0-51.57 10.35-70.37 29.15-18.8 18.79-29.15 43.79-29.15 70.37 0 24.23 8.6 47.14 24.36 65.24-11.32 20.92-20.46 43-27.25 65.81-51.62 3.6-92.53 46.75-92.53 99.28s40.9 95.68 92.53 99.28a346.522 346.522 0 0 0 27.24 65.81c-33.94 39.05-32.35 98.48 4.78 135.61 18.8 18.8 43.79 29.15 70.37 29.15 24.23 0 47.14-8.6 65.24-24.36 20.92 11.32 43 20.46 65.81 27.25 3.6 51.62 46.75 92.53 99.28 92.53s95.68-40.9 99.28-92.53a346.522 346.522 0 0 0 65.81-27.24c39.05 33.94 98.48 32.35 135.61-4.78 18.8-18.8 29.15-43.79 29.15-70.37 0-24.23-8.6-47.14-24.36-65.24 11.32-20.92 20.46-43 27.25-65.81 51.62-3.6 92.53-46.75 92.53-99.28s-40.9-95.68-92.53-99.28a346.792 346.792 0 0 0-27.24-65.81c15.76-18.1 24.36-41.01 24.36-65.24 0-26.58-10.35-51.58-29.15-70.37-18.8-18.8-43.79-29.15-70.37-29.15-24.23 0-47.14 8.6-65.24 24.36-20.93-11.32-43-20.46-65.81-27.25-3.59-51.64-46.75-92.54-99.27-92.54zM345.56 128.5c6.42 0 12.86-1.61 18.69-4.93a297.19 297.19 0 0 1 68.2-28.23c16.54-4.54 28.07-19.84 28.01-37.22v-0.07c0-28.41 23.11-51.52 51.52-51.52 28.41 0 51.52 23.11 51.52 51.52v0.14c-0.05 17.3 11.47 32.61 28.02 37.15 23.8 6.54 46.75 16.04 68.2 28.24 14.89 8.48 33.86 5.81 46.11-6.5l0.04-0.04c9.73-9.73 22.67-15.09 36.43-15.09 13.76 0 26.7 5.36 36.43 15.09s15.09 22.67 15.09 36.43c0 13.76-5.36 26.7-15.09 36.43l-0.08 0.08c-12.27 12.22-14.94 31.18-6.46 46.08 12.17 21.4 21.67 44.35 28.24 68.21 4.52 16.5 19.77 28 37.1 28h0.19c28.41 0 51.52 23.11 51.52 51.52s-23.11 51.52-51.52 51.52h-0.26c-17.26 0-32.5 11.51-37.03 28.03a297.327 297.327 0 0 1-28.24 68.2c-8.48 14.89-5.81 33.86 6.5 46.11l0.04 0.04c9.73 9.73 15.09 22.67 15.09 36.43s-5.36 26.7-15.09 36.43-22.67 15.09-36.43 15.09c-13.76 0-26.7-5.36-36.43-15.09l-0.09-0.09c-12.26-12.27-31.19-14.92-46.07-6.44-21.4 12.17-44.35 21.67-68.21 28.24-16.53 4.53-28.06 19.84-28 37.21v0.07c0 28.41-23.11 51.52-51.52 51.52-28.41 0-51.52-23.11-51.52-51.52v-0.14c0.05-17.3-11.47-32.61-28.02-37.15a297.327 297.327 0 0 1-68.2-28.24c-14.89-8.48-33.86-5.81-46.11 6.5-9.77 9.77-22.71 15.13-36.47 15.13-13.76 0-26.7-5.36-36.43-15.09-20.07-20.07-20.09-52.71-0.06-72.8l0.16-0.16c12.25-12.19 14.92-31.16 6.43-46.06-12.17-21.39-21.67-44.35-28.23-68.21-4.52-16.5-19.77-28-37.09-28h-0.19c-28.41 0-51.52-23.11-51.52-51.52s23.11-51.52 51.52-51.52h0.26c17.26 0 32.5-11.51 37.03-28.02a297.143 297.143 0 0 1 28.24-68.2c8.48-14.89 5.81-33.86-6.5-46.11l-0.04-0.04c-9.73-9.73-15.09-22.67-15.09-36.43 0-13.76 5.36-26.7 15.09-36.43s22.67-15.09 36.43-15.09c13.76 0 26.7 5.36 36.43 15.09l0.14 0.14a38.67 38.67 0 0 0 27.32 11.31z m66.9-70.3v-0.05 0.05z m199.04 0.07v0z m94.37 58.78l0.07-0.07-0.07 0.07zM211.36 223.92l-0.04-0.04 0.04 0.04z m601.2 0.04l0.02-0.02-0.02 0.02zM186.4 284.28h0.05-0.05z m651.18 0h0.05-0.05z m-0.05 199.04h-0.03 0.03c0.01 0 0.01 0 0 0z m-651.2 0h0.05-0.05z m626.28 60.37l0.03 0.03-0.03-0.03z m-460.58 140.8l0.07-0.07-0.07 0.07z m60.43 24.87v-0.03 0.03z m199.04 0.09v0z"  horiz-adv-x="1024" />

    
    <glyph glyph-name="zanting1" unicode="&#58928;" d="M511.96 383.8m-433.5 0a433.5 433.5 0 1 1 867 0 433.5 433.5 0 1 1-867 0ZM441.73 191.43H404.8c-13.65 0-24.72 11.07-24.72 24.72V551.44c0 13.65 11.07 24.72 24.72 24.72h36.93c13.65 0 24.72-11.07 24.72-24.72v-335.29c0-13.65-11.06-24.72-24.72-24.72zM619.12 191.43h-36.93c-13.65 0-24.72 11.07-24.72 24.72V551.44c0 13.65 11.07 24.72 24.72 24.72h36.93c13.65 0 24.72-11.07 24.72-24.72v-335.29c0-13.65-11.07-24.72-24.72-24.72z"  horiz-adv-x="1024" />

    
    <glyph glyph-name="tuichu" unicode="&#58929;" d="M223.61-49.9c-61.62 0-111.76 50.14-111.76 111.76V705.71c0 61.62 50.14 111.76 111.76 111.76l447.74 0.01c61.62 0 111.76-50.14 111.76-111.76v-63.43c0-13.25-10.75-24-24-24s-24 10.75-24 24v63.43c0 35.16-28.6 63.76-63.76 63.76l-447.74-0.01c-35.16 0-63.76-28.6-63.76-63.76v-643.85c0-35.16 28.6-63.76 63.76-63.76l447.74 0.01c35.16 0 63.76 28.6 63.76 63.76V146.2c0 13.25 10.75 24 24 24s24-10.75 24-24v-84.33c0-61.62-50.14-111.76-111.76-111.76l-447.74-0.01zM888.08 359.8H422.87c-13.25 0-24 10.75-24 24s10.75 24 24 24h465.21c13.25 0 24-10.75 24-24s-10.75-24-24-24zM696.55 168.27c-6.14 0-12.28 2.34-16.97 7.03-9.37 9.37-9.37 24.57 0 33.94L854.14 383.8 679.58 558.36c-9.37 9.37-9.37 24.57 0 33.94 9.37 9.37 24.57 9.37 33.94 0l191.53-191.53c9.37-9.37 9.37-24.57 0-33.94L713.52 175.3a23.919 23.919 0 0 0-16.97-7.03z"  horiz-adv-x="1024" />

    
    <glyph glyph-name="xunhuan" unicode="&#58930;" d="M659.63 16.41H364.29c-40.13 0-79.07 8.3-115.72 24.67-35.3 15.76-66.97 38.3-94.14 66.99-55.64 58.75-86.28 136.77-86.28 219.7 0 82.92 30.64 160.94 86.28 219.7 27.17 28.69 58.84 51.23 94.14 67 36.65 16.37 75.58 24.67 115.72 24.67h295.34c10.15 0 20.37-0.54 30.38-1.62 13.18-1.41 22.72-13.24 21.3-26.42s-13.24-22.72-26.42-21.3c-8.31 0.89-16.81 1.34-25.26 1.34H364.29c-66.03 0-128.18-27.23-175.01-76.67-47.16-49.8-73.13-116.1-73.13-186.69s25.97-136.89 73.13-186.69c46.82-49.44 108.97-76.67 175.01-76.67h295.34c66.03 0 128.18 27.23 175.01 76.67 47.16 49.8 73.13 116.1 73.13 186.69 0 13.25 10.75 24 24 24s24-10.75 24-24c0-82.92-30.64-160.94-86.28-219.69-27.17-28.69-58.84-51.23-94.14-67-36.65-16.38-75.59-24.68-115.72-24.68zM896.94 635.24l-185.33 107c-15.48 8.94-34.83-2.23-34.83-20.11v-214c0-17.88 19.35-29.05 34.83-20.11l185.33 107c15.48 8.94 15.48 31.28 0 40.22z"  horiz-adv-x="1024" />

    
    <glyph glyph-name="shoucang" unicode="&#58931;" d="M742.34-20.19c-7.87 0-15.78 1.9-23.09 5.74L512.66 94.18c-0.44 0.23-0.96 0.23-1.39 0l-206.6-108.62c-16.8-8.83-36.77-7.39-52.13 3.76-15.36 11.16-22.91 29.71-19.71 48.42L272.3 267.8c0.08 0.49-0.08 0.98-0.43 1.33L104.72 432.04c-13.59 13.25-18.39 32.7-12.53 50.75 5.87 18.05 21.18 30.97 39.97 33.7l230.98 33.56c0.49 0.07 0.91 0.38 1.13 0.82l103.3 209.3c8.4 17.03 25.42 27.61 44.4 27.61h0.01c18.98 0 35.99-10.58 44.38-27.6l103.3-209.29c0.22-0.44 0.63-0.75 1.11-0.82l231-33.56c18.78-2.73 34.09-15.64 39.96-33.68 5.87-18.05 1.08-37.5-12.51-50.75L752.06 269.12c-0.36-0.35-0.52-0.86-0.43-1.36l39.46-230.02c3.21-18.72-4.34-37.27-19.7-48.43-8.68-6.3-18.84-9.5-29.05-9.5zM511.96 142.36c7.92 0 15.83-1.9 23.05-5.7l206.58-108.63c0.39-0.2 0.83-0.43 1.58 0.11 0.76 0.55 0.68 1.04 0.6 1.48l-39.46 230.05c-2.74 16.09 2.58 32.46 14.24 43.82L885.7 466.43c0.31 0.3 0.67 0.65 0.38 1.55-0.29 0.89-0.78 0.96-1.21 1.03l-230.98 33.56c-16.11 2.33-30.04 12.45-37.27 27.07L513.3 738.95c-0.2 0.41-0.41 0.83-1.34 0.83-0.94 0-1.16-0.45-1.35-0.85l-103.3-209.3a49.505 49.505 0 0 0-37.26-27.08l-230.99-33.56c-0.43-0.06-0.93-0.14-1.22-1.03-0.29-0.89 0.07-1.24 0.38-1.55L305.36 303.5a49.477 49.477 0 0 0 14.24-43.83l-39.46-230.05c-0.07-0.43-0.16-0.92 0.6-1.48 0.76-0.55 1.19-0.32 1.58-0.12l206.59 108.62a49.228 49.228 0 0 0 23.05 5.72z"  horiz-adv-x="1024" />

    
    <glyph glyph-name="kefu" unicode="&#58932;" d="M220.05 104.79c-57.31 0-103.93 46.62-103.93 103.93V329.9c0 57.31 46.62 103.93 103.93 103.93s103.93-46.62 103.93-103.93v-121.18c0-57.31-46.62-103.93-103.93-103.93z m0 281.04c-30.84 0-55.93-25.09-55.93-55.93v-121.18c0-30.84 25.09-55.93 55.93-55.93s55.93 25.09 55.93 55.93V329.9c0 30.84-25.09 55.93-55.93 55.93zM888.18 104.79c-57.31 0-103.93 46.62-103.93 103.93V329.9c0 57.31 46.62 103.93 103.93 103.93 57.31 0 103.93-46.62 103.93-103.93v-121.18c0.01-27.75-10.8-53.86-30.43-73.49-19.64-19.63-45.74-30.44-73.5-30.44z m0 281.04c-30.84 0-55.93-25.09-55.93-55.93v-121.18c0-30.84 25.09-55.93 55.93-55.93 14.94 0 28.99 5.82 39.55 16.38 10.56 10.56 16.38 24.61 16.38 39.54V329.9c0 30.84-25.09 55.93-55.93 55.93zM653.63-8.08c-10.27 0-19.77 6.64-22.94 16.97-3.89 12.67 3.24 26.1 15.91 29.98 34.18 10.48 66.36 26.33 95.67 47.12a339.46 339.46 0 0 1 75.58 73.76c7.93 10.62 22.97 12.79 33.59 4.86 10.62-7.93 12.79-22.97 4.86-33.59a387.152 387.152 0 0 0-86.25-84.17c-33.49-23.76-70.29-41.88-109.37-53.87a24.36 24.36 0 0 0-7.05-1.06zM190.11 385.51c-1.07 0-2.14 0.07-3.23 0.22-13.14 1.77-22.35 13.85-20.59 26.99 12.32 91.54 57.45 175.75 127.08 237.12 70.27 61.93 160.58 96.03 254.31 96.03 93.55 0 183.73-33.97 253.94-95.66 69.56-61.12 114.78-145.04 127.33-236.31 1.8-13.13-7.38-25.24-20.51-27.04-13.13-1.81-25.24 7.38-27.04 20.51-10.98 79.85-50.56 153.29-111.46 206.79-61.44 53.99-140.38 83.72-222.26 83.72-82.03 0-161.08-29.85-222.57-84.04-60.96-53.73-100.47-127.42-111.24-207.51-1.63-12.07-11.93-20.82-23.76-20.82zM641.39-28.89H538.97c-24.75 0-44.82 20.06-44.82 44.82 0 24.75 20.06 44.82 44.82 44.82H641.4c24.75 0 44.82-20.06 44.82-44.82-0.01-24.75-20.07-44.82-44.83-44.82z"  horiz-adv-x="1024" />

    
    <glyph glyph-name="kuaitui1" unicode="&#59022;" d="M922.8 560.4c-22.6 53.4-54.9 101.3-96.1 142.5-41.2 41.2-89.1 73.5-142.5 96.1-55.3 23.4-114 35.2-174.5 35.2S390.5 822.3 335.2 799c-53.4-22.6-101.3-54.9-142.5-96.1-41.2-41.2-73.5-89.1-96.1-142.5-23.4-55.3-35.2-114-35.2-174.5s11.9-119.2 35.2-174.5c22.6-53.4 54.9-101.3 96.1-142.5 41.2-41.2 89.1-73.5 142.5-96.1 55.3-23.4 114-35.2 174.5-35.2s119.2 11.9 174.5 35.2c53.4 22.6 101.3 54.9 142.5 96.1 41.2 41.2 73.5 89.1 96.1 142.5 23.4 55.3 35.2 114 35.2 174.5s-11.8 119.2-35.2 174.5z m-413-542.8c-203.1 0-368.3 165.2-368.3 368.3s165.2 368.3 368.3 368.3S878.1 589 878.1 385.9 712.8 17.6 509.8 17.6zM742.2 555.5L531.1 433.6v87.3c0 14.3-7.6 27.5-20 34.6s-27.6 7.1-40 0l-233.8-135c-12.4-7.1-20-20.4-20-34.6s7.6-27.5 20-34.6l233.8-135c6.2-3.6 13.1-5.4 20-5.4s13.8 1.8 20 5.4c12.4 7.1 20 20.3 20 34.6v87.3l211.2-121.9c6.2-3.6 13.1-5.4 20-5.4s13.8 1.8 20 5.4c12.4 7.1 20 20.3 20 34.6v270c0 14.3-7.6 27.5-20 34.6-12.4 7.2-27.7 7.2-40.1 0zM451.1 320.2l-113.8 65.7 113.8 65.7v-131.4z m271.1 0l-113.8 65.7 113.8 65.7v-131.4z"  horiz-adv-x="1024" />

    
    <glyph glyph-name="kuaijin1" unicode="&#59023;" d="M96.7 211.4c22.6-53.4 54.9-101.3 96.1-142.5 41.2-41.2 89.1-73.5 142.5-96.1 55.3-23.4 114-35.2 174.5-35.2s119.2 11.9 174.5 35.2c53.4 22.6 101.3 54.9 142.5 96.1 41.2 41.2 73.5 89.1 96.1 142.5 23.4 55.3 35.2 114 35.2 174.5s-11.9 119.2-35.2 174.5c-22.6 53.4-54.9 101.3-96.1 142.5-41.2 41.2-89.1 73.5-142.5 96.1-55.3 23.4-114 35.2-174.5 35.2S390.6 822.3 335.3 799c-53.4-22.6-101.3-54.9-142.5-96.1-41.2-41.2-73.5-89.1-96.1-142.5-23.4-55.3-35.2-114-35.2-174.5s11.8-119.2 35.2-174.5z m413.1 542.8c203.1 0 368.3-165.2 368.3-368.3S712.8 17.6 509.8 17.6 141.5 182.8 141.5 385.9s165.2 368.3 368.3 368.3zM277.3 216.3l211.2 121.9v-87.3c0-14.3 7.6-27.5 20-34.6s27.6-7.1 40 0l233.8 135c12.4 7.1 20 20.4 20 34.6s-7.6 27.5-20 34.6l-233.8 135c-6.2 3.6-13.1 5.4-20 5.4s-13.8-1.8-20-5.4c-12.4-7.1-20-20.3-20-34.6v-87.3L277.3 555.5c-6.2 3.6-13.1 5.4-20 5.4s-13.8-1.8-20-5.4c-12.4-7.1-20-20.3-20-34.6v-270c0-14.3 7.6-27.5 20-34.6 12.4-7.2 27.6-7.2 40 0z m291.1 235.3l113.8-65.7-113.8-65.7V451.6z m-271.1 0l113.8-65.7-113.8-65.7V451.6z"  horiz-adv-x="1024" />

    
    <glyph glyph-name="bofangzhong" unicode="&#59024;" d="M928 560.9c-22.6 53.4-54.9 101.3-96.1 142.5-41.2 41.2-89.1 73.5-142.5 96.1-55.3 23.4-114 35.2-174.5 35.2S395.7 822.9 340.4 799.5c-53.4-22.6-101.3-54.9-142.5-96.1-41.2-41.2-73.5-89.1-96.1-142.5-23.4-55.3-35.2-114-35.2-174.5s11.9-119.2 35.2-174.5c22.6-53.4 54.9-101.3 96.1-142.5 41.2-41.2 89.1-73.5 142.5-96.1 55.3-23.4 114-35.2 174.5-35.2s119.2 11.9 174.5 35.2c53.4 22.6 101.3 54.9 142.5 96.1 41.2 41.2 73.5 89.1 96.1 142.5 23.4 55.3 35.2 114 35.2 174.5S951.3 505.6 928 560.9zM514.9 18.1c-203.1 0-368.3 165.2-368.3 368.3 0 203.1 165.2 368.3 368.3 368.3 203.1 0 368.3-165.2 368.3-368.3 0-203-165.2-368.3-368.3-368.3zM413.8 579.4c-22.1 0-40-17.9-40-40v-306c0-22.1 17.9-40 40-40s40 17.9 40 40v306c0 22.1-17.9 40-40 40zM616 579.4c-22.1 0-40-17.9-40-40v-306c0-22.1 17.9-40 40-40s40 17.9 40 40v306c0 22.1-17.9 40-40 40z"  horiz-adv-x="1024" />

    
    <glyph glyph-name="gengduo1" unicode="&#59025;" d="M926.6 560.4c-22.6 53.4-54.9 101.3-96.1 142.5-41.1 41.2-89.1 73.5-142.5 96.1-55.3 23.4-114 35.2-174.5 35.2S394.3 822.4 339 799c-53.4-22.6-101.3-54.9-142.5-96.1-41.2-41.2-73.5-89.1-96.1-142.5-23.4-55.3-35.2-114-35.2-174.5s11.9-119.2 35.2-174.5c22.6-53.4 54.9-101.3 96.1-142.5 41.2-41.2 89.1-73.5 142.5-96.1 55.3-23.4 114-35.2 174.5-35.2s119.2 11.9 174.5 35.2c53.4 22.6 101.3 54.9 142.5 96.1 41.2 41.2 73.5 89.1 96.1 142.5 23.4 55.3 35.2 114 35.2 174.5S950 505.1 926.6 560.4zM513.5 17.6c-203.1 0-368.3 165.2-368.3 368.3s165.2 368.3 368.3 368.3c203.1 0 368.3-165.2 368.3-368.3S716.6 17.6 513.5 17.6zM306.4 385.9m-61.4 0a61.4 61.4 0 1 1 122.8 0 61.4 61.4 0 1 1-122.8 0ZM516.3 385.9m-61.4 0a61.4 61.4 0 1 1 122.8 0 61.4 61.4 0 1 1-122.8 0ZM720.7 385.9m-61.4 0a61.4 61.4 0 1 1 122.8 0 61.4 61.4 0 1 1-122.8 0Z"  horiz-adv-x="1024" />

    
    <glyph glyph-name="tinggeshiqu" unicode="&#59026;" d="M923.7 557.9c-22.6 53.4-54.9 101.3-96.1 142.5-41.2 41.2-89.1 73.5-142.5 96.1-55.3 23.4-114 35.2-174.5 35.2S391.4 819.8 336.1 796.5c-53.4-22.6-101.3-54.9-142.5-96.1-41.2-41.2-73.5-89.1-96.1-142.5-23.4-55.3-35.2-114-35.2-174.5s11.9-119.2 35.2-174.5c22.6-53.4 54.9-101.3 96.1-142.5 41.2-41.2 89.1-73.5 142.5-96.1 55.3-23.4 114-35.2 174.5-35.2s119.2 11.9 174.5 35.2c53.4 22.6 101.3 54.9 142.5 96.1 41.2 41.2 73.5 89.1 96.1 142.5 23.4 55.3 35.2 114 35.2 174.5s-11.8 119.2-35.2 174.5zM510.6 15.1c-203.1 0-368.3 165.2-368.3 368.3 0 203.1 165.2 368.3 368.3 368.3s368.3-165.2 368.3-368.3c0-203.1-165.2-368.3-368.3-368.3zM648.3 522.1c-2.3 1.8-4.6 3.6-6.8 5.6-15 13.3-26.5 30.4-32.8 49.9-1 2.9-1.8 5.8-2.5 8.8-2.1 8.5-3.2 17.5-3.2 26.7 0 20.2 5.3 39.2 14.5 55.6-42.4-8.9-76.1-41.3-86.8-83-0.8-3.1-1.5-6.3-2-9.6v-261.8c-5.9 1.9-11.9 3.5-18.2 4.7-10.7 2.2-22 3.5-33.7 3.8-13.5 0.4-27.5-0.6-41.8-3.1-30.4-5.2-57.6-16.4-79.6-31.3-24.8-16.8-42.8-38.5-51.1-62-4.8-13.7-6.4-28-3.9-42.3 10.3-60.3 87.4-97.4 172.1-82.9 20.8 3.6 40.1 9.9 57.3 18.4 23.1 11.4 42.3 26.6 56 43.9 12 15.2 19.7 32.1 21.8 49.4 0.4 3.3 0.6 6.7 0.7 10.1 0.2 0 0.4 254.9 0.4 254.9h-0.2 0.2c2.1 0.1 4.3 0.2 6.4 0.2 27.2 0 52.2-9.5 71.8-25.5 15.8-12.8 28-29.7 35.2-49.2-5 19.8-12.5 38.5-22.3 55.9-13.4 24-30.9 45.2-51.5 62.8z"  horiz-adv-x="1024" />

    
    <glyph glyph-name="shangyiqu" unicode="&#59027;" d="M928 560.9c-22.6 53.4-54.9 101.3-96.1 142.5-41.2 41.2-89.1 73.5-142.5 96.1-55.3 23.4-114 35.2-174.5 35.2S395.7 822.9 340.4 799.5c-53.4-22.6-101.3-54.9-142.5-96.1-41.2-41.2-73.5-89.1-96.1-142.5-23.4-55.3-35.2-114-35.2-174.5s11.9-119.2 35.2-174.5c22.6-53.4 54.9-101.3 96.1-142.5 41.2-41.2 89.1-73.5 142.5-96.1 55.3-23.4 114-35.2 174.5-35.2s119.2 11.9 174.5 35.2c53.4 22.6 101.3 54.9 142.5 96.1 41.2 41.2 73.5 89.1 96.1 142.5 23.4 55.3 35.2 114 35.2 174.5S951.3 505.6 928 560.9zM514.9 18.1c-203.1 0-368.3 165.2-368.3 368.3 0 203.1 165.2 368.3 368.3 368.3 203.1 0 368.3-165.2 368.3-368.3 0-203-165.2-368.3-368.3-368.3zM685.9 556.1c-12.4 7.1-27.6 7.1-40 0l-233.8-135c-3.1-1.8-5.8-3.9-8.3-6.4V539.4c0 22.1-17.9 40-40 40s-40-17.9-40-40v-306c0-22.1 17.9-40 40-40s40 17.9 40 40V358.1c2.4-2.4 5.2-4.6 8.3-6.4l233.8-135c6.2-3.6 13.1-5.4 20-5.4s13.8 1.8 20 5.4c12.4 7.1 20 20.3 20 34.6v270c0 14.4-7.6 27.6-20 34.8z m-60-235.4l-113.8 65.7 113.8 65.7v-131.4z"  horiz-adv-x="1024" />

    
    <glyph glyph-name="xiayiqu" unicode="&#59028;" d="M101.9 211.9c22.6-53.4 54.9-101.3 96.1-142.5 41.2-41.2 89.1-73.5 142.5-96.1 55.3-23.4 114-35.2 174.5-35.2s119.2 11.9 174.5 35.2c53.4 22.6 101.3 54.9 142.5 96.1 41.2 41.2 73.5 89.1 96.1 142.5 23.4 55.3 35.2 114 35.2 174.5s-11.9 119.2-35.2 174.5c-22.6 53.4-54.9 101.3-96.1 142.5-41.2 41.2-89.1 73.5-142.5 96.1-55.3 23.4-114 35.2-174.5 35.2S395.7 822.9 340.4 799.5c-53.4-22.6-101.3-54.9-142.5-96.1-41.2-41.2-73.5-89.1-96.1-142.5-23.4-55.3-35.2-114-35.2-174.5s11.9-119.2 35.3-174.5z m413 542.8c203.1 0 368.3-165.2 368.3-368.3 0-203.1-165.2-368.3-368.3-368.3-203.1 0-368.3 165.2-368.3 368.3 0 203.1 165.2 368.3 368.3 368.3zM343.9 216.8c12.4-7.1 27.6-7.1 40 0l233.8 135c3.1 1.8 5.8 3.9 8.3 6.4v-124.7c0-22.1 17.9-40 40-40s40 17.9 40 40v306c0 22.1-17.9 40-40 40s-40-17.9-40-40v-124.7c-2.4 2.4-5.2 4.6-8.3 6.4l-233.8 135c-6.2 3.6-13.1 5.4-20 5.4s-13.8-1.8-20-5.4c-12.4-7.1-20-20.3-20-34.6v-270c0-14.4 7.6-27.7 20-34.8z m60 235.3l113.8-65.7-113.8-65.7V452.1z"  horiz-adv-x="1024" />

    
    <glyph glyph-name="lishibofang" unicode="&#59029;" d="M927.1 557.1c-22.6 53.4-54.9 101.3-96.1 142.5-41.2 41.2-89.1 73.5-142.5 96.1C633.2 819 574.5 830.9 514 830.9S394.8 819 339.5 795.7c-53.4-22.6-101.3-54.9-142.5-96.1-41.2-41.2-73.5-89.1-96.1-142.5-23.4-55.3-35.2-114-35.2-174.5S77.6 263.4 101 208.1c22.6-53.4 54.9-101.3 96.1-142.5 41.2-41.2 89.1-73.5 142.5-96.1 55.3-23.4 114-35.2 174.5-35.2s119.2 11.9 174.5 35.2c53.4 22.6 101.3 54.9 142.5 96.1 41.2 41.2 73.5 89.1 96.1 142.5 23.4 55.3 35.2 114 35.2 174.5s-12 119.2-35.3 174.5zM514 14.3c-203.1 0-368.3 165.2-368.3 368.3 0 203.1 165.2 368.3 368.3 368.3s368.3-165.2 368.3-368.3c0-203.1-165.2-368.3-368.3-368.3zM554 626c0 22.1-17.9 40-40 40s-40-17.9-40-40v-287.2c0-1.9 0.1-3.8 0.4-5.7v-0.7c0-22.1 17.9-40 40-40h287.2c22.1 0 40 17.9 40 40s-17.9 40-40 40H554V626z"  horiz-adv-x="1024" />

    
    <glyph glyph-name="diantai" unicode="&#59040;" d="M143.3 380.9c-1.2 201.7 161.2 367.5 362.8 370.5 205.6 3 373.8-163.4 373.8-368.3 0-87.4-30.6-167.8-81.7-231-12.8-15.9-11.5-39 2.9-53.4 16.9-16.9 44.6-15.4 59.6 3.2 26.2 32.4 47.6 68.1 63.9 106.7 23.4 55.3 35.2 114 35.2 174.5S948 502.3 924.6 557.6c-22.6 53.4-54.9 101.3-96 142.5-41.2 41.2-89.1 73.5-142.5 96.1-55.3 23.4-114 35.2-174.5 35.2S392.4 819.5 337.1 796.2c-53.4-22.6-101.3-54.9-142.5-96.1-41.2-41.2-73.5-89.1-96.1-142.5-23.4-55.3-35.2-114-35.2-174.5s11.9-119.2 35.2-174.5c16.7-39.6 38.8-76.2 65.9-109.2 15.1-18.4 42.7-19.9 59.5-3.1 14.6 14.6 15.7 37.9 2.6 53.9-51.6 63-82.7 143.3-83.2 230.7zM399.8 231.5c-10.2 0-20.4 3.9-28.2 11.7-37.7 37.5-58.4 87.4-58.4 140.6 0 109.4 89 198.4 198.4 198.4S710 493.2 710 383.8c0-52.7-20.4-102.3-57.6-139.8-15.6-15.7-40.9-15.8-56.6-0.2-15.7 15.6-15.8 40.9-0.2 56.6 22.2 22.3 34.4 52 34.4 83.4 0 65.3-53.1 118.4-118.4 118.4-65.3 0-118.4-53.1-118.4-118.4 0-31.7 12.4-61.5 34.9-83.9 15.7-15.6 15.7-40.9 0.1-56.6-7.9-7.9-18.2-11.8-28.4-11.8zM680.3-45H342.8c-15.1 0-29 8.5-35.8 22.1-6.8 13.5-5.3 29.7 3.7 41.9l168.8 226c7.6 10.1 19.4 16.1 32.1 16.1 12.6 0 24.5-6 32.1-16.1l168.8-226c9.1-12.1 10.5-28.3 3.7-41.9-6.9-13.6-20.7-22.1-35.9-22.1z m-257.7 80h178l-89 119.2-89-119.2z"  horiz-adv-x="1024" />

    
    <glyph glyph-name="yinleguan" unicode="&#59041;" d="M872.1 156.6c0.1 1.1 0.1 2.2 0.1 3.3V797.8c0 22.1-17.9 40-40 40-6 0-11.7-1.3-16.8-3.7L420.7 717.3c-19.9-5.9-31.8-25.9-27.9-45.9v-532.7c-23.7 9.5-51.2 15-80.5 15-88.9 0-160.9-50.1-160.9-112s72-112 160.9-112c74 0 136.4 34.8 155.1 82.2 3.4 5.9 5.4 12.7 5.4 20v1.9c0.3 2.6 0.4 5.2 0.4 7.9s-0.1 5.3-0.4 7.9V649.3l319.6 94.5v-501c-23.6 9.5-51.1 14.9-80.3 14.9-88.9 0-160.9-50.1-160.9-112s72-112 160.9-112S873 83.8 873 145.7c-0.1 3.7-0.4 7.3-0.9 10.9z"  horiz-adv-x="1024" />

    
    <glyph glyph-name="shipin" unicode="&#59042;" d="M951.2 613.8c-14.3 6.5-31.1 4-42.9-6.4l-165-145.3V731.5c0 22.1-17.9 40-40 40H108c-22.1 0-40-17.9-40-40v-695.2c0-22.1 17.9-40 40-40h595.3c22.1 0 40 17.9 40 40V305.6l164.9-145.2c7.5-6.6 16.9-10 26.4-10 5.6 0 11.2 1.2 16.5 3.5 14.3 6.5 23.5 20.7 23.5 36.5V577.3c0.1 15.7-9.1 30-23.4 36.5zM663.3 76.3H148V691.5h515.3v-615.2zM894.7 279L775.5 383.9l119.2 104.9V279zM317.7 414.7c58.1 0 105.4 47.3 105.4 105.4s-47.3 105.4-105.4 105.4-105.4-47.3-105.4-105.4 47.3-105.4 105.4-105.4z m0 130.8c14 0 25.4-11.4 25.4-25.4s-11.4-25.4-25.4-25.4-25.4 11.4-25.4 25.4 11.4 25.4 25.4 25.4z"  horiz-adv-x="1024" />

    
    <glyph glyph-name="bofangliebiao" unicode="&#59043;" d="M133 714.1h753c22.1 0 40 17.9 40 40s-17.9 40-40 40H133c-22.1 0-40-17.9-40-40s17.9-40 40-40zM886 422.8H133c-22.1 0-40-17.9-40-40s17.9-40 40-40h753c22.1 0 40 17.9 40 40s-17.9 40-40 40zM572 49.4H133c-22.1 0-40-17.9-40-40s17.9-40 40-40h439c22.1 0 40 17.9 40 40s-17.9 40-40 40zM905.6 171.3L679.8 301.6c-12.4 7.1-27.6 7.1-40 0-12.4-7.1-20-20.3-20-34.6v-260.8c0-14.3 7.6-27.5 20-34.6 6.2-3.6 13.1-5.4 20-5.4s13.8 1.8 20 5.4L905.6 102c12.4 7.1 20 20.3 20 34.6s-7.6 27.5-20 34.7z m-205.8-95.8V197.7l105.8-61.1-105.8-61.1z"  horiz-adv-x="1024" />

    
    <glyph glyph-name="yinliang" unicode="&#59044;" d="M639.7 802.2c-12 7.2-26.8 7.7-39.2 1.2L322 657.9H112c-22.1 0-40-17.9-40-40v-449.7c0-22.1 17.9-40 40-40h204.9c0.5-0.3 1.1-0.6 1.6-0.9l282.3-144c5.7-2.9 12-4.4 18.2-4.4 7.3 0 14.5 2 20.9 5.9 11.9 7.3 19.1 20.2 19.1 34.1V768c0 14-7.3 27-19.3 34.2zM152 577.9h144.7v-369.7H152V577.9z m427-493.6L376.7 187.5V596.3L579 702v-617.7zM855.3 670.4c-15.6 15.6-41 15.6-56.6-0.1s-15.6-41 0.1-56.6c65.6-65.5 87.8-123.4 87.8-229.6 0-113.7-20.9-173-82.8-234.9-15.6-15.6-15.6-40.9 0-56.6 7.8-7.8 18-11.7 28.3-11.7 10.2 0 20.5 3.9 28.3 11.7 41.4 41.4 68.4 83.4 84.9 132.3 14.7 43.5 21.3 92.6 21.3 159.2 0 127.8-30.1 205.4-111.3 286.3z"  horiz-adv-x="1024" />

    
    <glyph glyph-name="bofangduilie" unicode="&#59045;" d="M938.8 340.5c-12.8 27.7-30.4 52.7-51.7 73.9-2.4 2.2-4.8 4.4-7.1 6.8-15.5 16-26.8 35.9-32.1 58.1-0.9 3.3-1.5 6.6-2 10-1.6 9.6-2.1 19.7-1.3 29.8 1.7 22.4 9.2 43 20.8 60.4-47.7-6.3-87.8-39.3-103.2-84.6-1.1-3.4-2.2-6.9-3-10.5l-22.2-290c-6.4 2.6-12.9 4.9-19.8 6.7-11.7 3.3-24.1 5.7-37 7.1-14.9 1.6-30.5 1.7-46.6 0.1-34.1-3.2-65.2-13.3-90.8-27.9-28.9-16.5-50.7-39-61.9-64.4-6.5-14.8-9.5-30.5-7.9-46.5 6.3-67.7 88.6-115.3 183.6-106.4 23.3 2.2 45.3 7.6 65 15.5 26.6 10.7 49.1 25.9 65.7 43.9 14.6 15.8 24.5 33.9 28.3 52.9 0.7 3.6 1.2 7.4 1.6 11.1 0.2 0 22 282.3 22 282.3 2.3-0.1 4.8-0.1 7.1-0.3 30.1-2.3 57-14.9 77.4-34.3 16.4-15.5 28.5-35.3 34.8-57.5-3.6 22.3-10.3 43.7-19.7 63.8z m-99.5 28.3zM105 727h798.2c22.1 0 40 17.9 40 40s-17.9 40-40 40H105c-22.1 0-40-17.9-40-40s17.9-40 40-40zM105 344.2h568.2c22.1 0 40 17.9 40 40s-17.9 40-40 40H105c-22.1 0-40-17.9-40-40s17.9-40 40-40zM417.2 41.4H105c-22.1 0-40-17.9-40-40s17.9-40 40-40h312.2c22.1 0 40 17.9 40 40s-17.9 40-40 40z"  horiz-adv-x="1024" />

    
    <glyph glyph-name="pinglun" unicode="&#59046;" d="M238.764926 447.000443a61.4 61.4 0 1 1 119.513264 28.220906 61.4 61.4 0 1 1-119.513264-28.220906ZM457.762316 447.010854a61.4 61.4 0 1 1 119.513264 28.220906 61.4 61.4 0 1 1-119.513264-28.220906ZM667.058581 447.030917a61.4 61.4 0 1 1 119.513265 28.220906 61.4 61.4 0 1 1-119.513265-28.220906ZM919.7 812.4h-814c-22.1 0-40-17.9-40-40v-603c0-22.1 17.9-40 40-40h257.1L478-24.2c7.5-10 19.3-16 31.9-16h0.1c12.5 0 24.3 5.8 31.9 15.8l116.8 153.8h261c22.1 0 40 17.9 40 40v603c0 22.1-17.9 40-40 40z m-40-603H638.8c-12.5 0-24.3-5.9-31.9-15.8l-96.7-127.4-95.5 127.2c-7.6 10.1-19.4 16-32 16h-237v523h734v-523z"  horiz-adv-x="1024" />

    
    <glyph glyph-name="erji1" unicode="&#59047;" d="M935.4 243.9c13.6 32.9 4.3 69.9-20.6 92.8 2.6 18.6 3.9 37.4 3.9 56.4 0 55-10.8 108.3-32 158.6-20.5 48.5-49.9 92.1-87.3 129.5-37.4 37.4-81 66.8-129.5 87.3-50.2 21.2-103.6 32-158.6 32s-108.3-10.8-158.6-32c-48.5-20.5-92.1-49.9-129.5-87.3-37.4-37.4-66.8-81-87.3-129.5-21.2-50.2-32-103.6-32-158.6 0-19.4 1.3-38.5 4-57.4-25-23.3-34.7-60.4-21.9-93.9-14-11.9-23-29.7-23-49.7 0-35.9 29.1-65 65-65 2.2 0 4.4 0.1 6.6 0.3l14.8-34.9c18.5-43.6 69.3-64.1 112.9-45.6 43.6 18.5 64.1 69.3 45.6 112.9l-62.2 146.4c-12.2 28.8-38.5 47.5-67.5 51.6-1.2 11.6-1.9 23.4-1.9 35.3 0 184.7 150.2 334.9 334.9 334.9s334.9-150.2 334.9-334.9c0-12.1-0.6-24-1.9-35.8-26.8-4.8-50.8-22.5-62.2-49.3l-60-141.3c-17.9-42.1 1.9-91.1 44-108.9 42.1-17.9 91.1 1.9 108.9 44l11 26c3.3-0.5 6.6-0.8 10-0.8 35.9 0 65 29.1 65 65 0.3 21.3-9.8 40.1-25.5 51.9z m-742.3 7.5c22 0 39.7-17.8 39.7-39.7S215 172 193.1 172s-39.7 17.8-39.7 39.7 17.8 39.7 39.7 39.7z m638.5-79.5c-22 0-39.7 17.8-39.7 39.7s17.8 39.7 39.7 39.7c22 0 39.7-17.8 39.7-39.7s-17.8-39.7-39.7-39.7z"  horiz-adv-x="1024" />

    
    <glyph glyph-name="luyin" unicode="&#59048;" d="M794.1 525.1c-0.8 0-1.6 0-2.3-0.1-2.1 0.3-4.2 0.5-6.4 0.6l-77.2 0.5v110c0 107.7-87.6 195.2-195.2 195.2s-195.2-87.6-195.2-195.2v-112.3l-78 0.5c-2.6 0.5-5.3 0.8-8 0.8-22.1 0-40-17.9-40-40v-94.2c0-43.2 8.5-85.2 25.4-124.8 16.2-38.2 39.4-72.5 69-102.1 29.5-29.5 63.9-52.7 102.1-69 27.2-11.6 55.6-19.2 84.6-22.9l-0.3-54.4H256.3c-22.1 0-40-17.9-40-40s17.9-40 40-40h247c2.8-0.7 5.8-1 8.8-1h0.2c3.1 0 6.1 0.4 9 1h247c22.1 0 40 17.9 40 40s-17.9 40-40 40H552.5l0.3 54.4c29.2 3.6 57.7 11.3 85 22.9 38.2 16.2 72.5 39.4 102.1 69 29.5 29.5 52.7 63.9 69 102.1 16.8 39.6 25.4 81.6 25.4 124.8v94.2c-0.2 22.1-18.1 40-40.2 40zM397.6 636.2c0 63.5 51.7 115.2 115.2 115.2S628 699.7 628 636.2V412c0-63.5-51.7-115.2-115.2-115.2S397.6 348.5 397.6 412V636.2z m115.2-486.5c-133 0-241.2 108.2-241.2 241.2v53.2l46-0.3v-32c0-107.7 87.6-195.2 195.2-195.2S708 304.2 708 411.8V446l46-0.3v-54.9c0.1-132.9-108.1-241.1-241.2-241.1z"  horiz-adv-x="1024" />

    
    <glyph glyph-name="suijibofang" unicode="&#59050;" d="M914.2 191L796.4 299.2c-8.7 8-22.7 1.8-22.7-10V208c-69.5 1.8-134 39.7-169.3 99.8l-45.1 77 47 80.2c34.9 59.6 98.6 97.4 167.4 99.8v-60.1c0-11.8 14-17.9 22.7-10l117.8 108.1c5.8 5.4 5.8 14.6 0 19.9L796.4 731c-8.7 8-22.7 1.8-22.7-10v-76H758c-4.7 0-9.3-0.8-13.5-2.3-36.5-4.7-72-16.6-104.1-35-42.6-24.4-78.3-59.8-103.1-102.2L513 464l-24.3 41.5c-24.8 42.4-60.5 77.7-103.1 102.2C343 632.1 294.5 645 245.3 645H105c-22.1 0-40-17.9-40-40s17.9-40 40-40h140.3c71.4 0 138.3-38.3 174.4-99.9l47-80.2-45.1-77c-36.2-61.7-103-99.9-174.4-99.9H105c-22.1 0-40-17.9-40-40s17.9-40 40-40l142-0.1h0.2c49.1 0 97.6 12.9 140.2 37.3 42.7 24.4 78.3 59.8 103.2 102.2l22.4 38.3 22.4-38.3c24.8-42.4 60.5-77.8 103.2-102.2 33.1-18.9 69.6-30.9 107.3-35.4 3.8-1.2 7.8-1.8 11.9-1.8l15.9-0.1v-55c0-11.8 14-17.9 22.7-10L914.2 171c5.9 5.5 5.9 14.7 0 20z"  horiz-adv-x="1024" />

    
    <glyph glyph-name="danquxunhuan1" unicode="&#59051;" d="M361.5 168.2c-119.1 0-215.9 96.9-215.9 215.9 0 119.1 96.9 215.9 215.9 215.9 2.3 0 4.6 0.2 6.8 0.6v-58.3c0-12.3 14-19.4 23.9-12.1l132.6 97.6c8.1 6 8.1 18.2 0 24.2l-132.6 97.6c-9.9 7.3-23.9 0.2-23.9-12.1v-58.1c-2.2 0.4-4.5 0.6-6.8 0.6-39.8 0-78.5-7.9-115-23.4-35.2-15-66.8-36.3-94-63.5s-48.6-58.8-63.5-94c-15.5-36.5-23.4-75.2-23.4-115s7.9-78.5 23.4-115c15-35.2 36.3-66.8 63.5-94s58.8-48.6 94-63.5c36.5-15.5 75.2-23.4 115-23.4 22.1 0 40 17.9 40 40s-17.9 40-40 40zM938.2 499.1c-15 35.2-36.3 66.8-63.5 94s-58.8 48.6-94 63.5c-36.5 15.5-75.2 23.4-115 23.4-22.1 0-40-17.9-40-40s17.9-40 40-40c119.1 0 215.9-96.9 215.9-215.9 0-119.1-96.9-215.9-215.9-215.9-4.1 0-8.1-0.6-11.8-1.8v60.8c0 12.3-14 19.4-23.9 12.1l-132.6-97.6c-8.1-6-8.1-18.2 0-24.2L629.9 20c9.9-7.3 23.9-0.2 23.9 12.1V90c3.7-1.2 7.7-1.8 11.8-1.8 39.8 0 78.5 7.9 115 23.4 35.2 15 66.8 36.3 94 63.5s48.6 58.8 63.5 94c15.5 36.5 23.4 75.2 23.4 115s-7.8 78.5-23.3 115zM512.8 235.4c22.1 0.1 39.9 18.1 39.8 40.2l-1.2 214.1c-0.1 22-18 39.8-40 39.8h-0.2c-22.1-0.1-39.9-18.1-39.8-40.2l1.2-214.1c0.1-22 18-39.8 40-39.8h0.2z"  horiz-adv-x="1024" />

    
    <glyph glyph-name="liebiaoxunhuan1" unicode="&#59054;" d="M361.5 168.2c-119.1 0-215.9 96.9-215.9 215.9 0 119.1 96.9 215.9 215.9 215.9 2.3 0 4.6 0.2 6.8 0.6v-58.3c0-12.3 14-19.4 23.9-12.1l132.6 97.6c8.1 6 8.1 18.2 0 24.2l-132.6 97.6c-9.9 7.3-23.9 0.2-23.9-12.1v-58.1c-2.2 0.4-4.5 0.6-6.8 0.6-39.8 0-78.5-7.9-115-23.4-35.2-15-66.8-36.3-94-63.5s-48.6-58.8-63.5-94c-15.5-36.5-23.4-75.2-23.4-115s7.9-78.5 23.4-115c15-35.2 36.3-66.8 63.5-94s58.8-48.6 94-63.5c36.5-15.5 75.2-23.4 115-23.4 22.1 0 40 17.9 40 40s-17.9 40-40 40zM938.2 499.1c-15 35.2-36.3 66.8-63.5 94s-58.8 48.6-94 63.5c-36.5 15.5-75.2 23.4-115 23.4-22.1 0-40-17.9-40-40s17.9-40 40-40c119.1 0 215.9-96.9 215.9-215.9 0-119.1-96.9-215.9-215.9-215.9-4.1 0-8.1-0.6-11.8-1.8v60.8c0 12.3-14 19.4-23.9 12.1l-132.6-97.6c-8.1-6-8.1-18.2 0-24.2L629.9 20c9.9-7.3 23.9-0.2 23.9 12.1V90c3.7-1.2 7.7-1.8 11.8-1.8 39.8 0 78.5 7.9 115 23.4 35.2 15 66.8 36.3 94 63.5s48.6 58.8 63.5 94c15.5 36.5 23.4 75.2 23.4 115s-7.8 78.5-23.3 115z"  horiz-adv-x="1024" />

    
    <glyph glyph-name="bofangMV" unicode="&#59055;" d="M919.2 747.6H104.8c-22.1 0-40-17.9-40-40v-645c0-22.1 17.9-40 40-40h814.5c22.1 0 40 17.9 40 40v645c-0.1 22.1-18 40-40.1 40z m-40-645H144.8v565h734.5v-565zM368.7 208.1c6.2-3.6 13.1-5.4 20-5.4s13.8 1.8 20 5.4l246.6 142.4c12.4 7.1 20 20.4 20 34.6 0 14.3-7.6 27.5-20 34.6L408.7 562.1c-12.4 7.1-27.6 7.1-40 0-12.4-7.1-20-20.4-20-34.6v-284.7c0-14.4 7.6-27.6 20-34.7z m60 250.1l126.6-73.1L428.7 312V458.2z"  horiz-adv-x="1024" />

    
    <glyph glyph-name="tianjiadao" unicode="&#59057;" d="M890.7 800.2H134.9c-20.5 0-37.1-20.5-37.1-45.8V16c0-25.3 16.6-45.8 37.1-45.8h755.8c20.5 0 37.1 20.5 37.1 45.8V754.4c0 25.3-16.6 45.8-37.1 45.8z m-37.2-738.4H172V708.6h681.5v-646.8zM343.6 345.8l129-0.4-0.4-129c-0.1-22.1 17.8-40.1 39.9-40.1h0.1c22 0 39.9 17.8 40 39.9l0.4 129 129-0.4h0.1c22 0 39.9 17.8 40 39.9 0.1 22.1-17.8 40.1-39.9 40.1l-129 0.4 0.4 129c0.1 22.1-17.8 40.1-39.9 40.1-22.1 0.1-40.1-17.8-40.1-39.9l-0.4-129-129 0.4h-0.1c-22 0-39.9-17.8-40-39.9 0-22.1 17.8-40.1 39.9-40.1z"  horiz-adv-x="1024" />

    


  </font>
</defs>
</svg>
